<svg width="24" height="24" viewBox="0 0 24 24" xmlns="http://www.w3.org/2000/svg">
    <path d="M8.3642 4.3L3.3 4.3L3.3 19.7L20.7 19.7L20.7 7.3H12.1575C11.405 7.3 10.6894 6.97394 10.1956 6.40606L8.3642 4.3ZM3.3 3H8.3642C8.74047 3 9.09829 3.16303 9.34519 3.44697L11.1765 5.55303C11.4235 5.83697 11.7813 6 12.1575 6H20.7C21.418 6 22 6.58203 22 7.3V19.7C22 20.418 21.418 21 20.7 21H3.3C2.58203 21 2 20.418 2 19.7V4.3C2 3.58203 2.58203 3 3.3 3Z"/>
    <path d="M12.05 8.64136C12.4089 8.64136 12.7 8.93237 12.7 9.29136V17.0914C12.7 17.4503 12.4089 17.7414 12.05 17.7414C11.691 17.7414 11.4 17.4503 11.4 17.0914V9.29136C11.4 8.93237 11.691 8.64136 12.05 8.64136Z"/>
    <path d="M16.6001 13.1916C16.6001 13.5505 16.3091 13.8416 15.9501 13.8416L8.1501 13.8416C7.79111 13.8416 7.5001 13.5505 7.5001 13.1916C7.5001 12.8326 7.79111 12.5416 8.1501 12.5416L15.9501 12.5416C16.3091 12.5416 16.6001 12.8326 16.6001 13.1916Z"/>
</svg>
