<svg width="24" height="24" viewBox="0 0 24 24" xmlns="http://www.w3.org/2000/svg">
    <path fill-rule="evenodd" clip-rule="evenodd" d="M20.4 5.9998H3.6C2.27452 5.9998 1.2 7.07432 1.2 8.39981V15.1998C1.2 16.5253 2.27452 17.5998 3.6 17.5998H20.4C21.7255 17.5998 22.8 16.5253 22.8 15.1998V8.3998C22.8 7.07432 21.7255 5.9998 20.4 5.9998ZM3.6 4.7998C1.61178 4.7998 0 6.41158 0 8.39981V15.1998C0 17.188 1.61178 18.7998 3.6 18.7998H20.4C22.3882 18.7998 24 17.188 24 15.1998V8.3998C24 6.41158 22.3882 4.7998 20.4 4.7998H3.6Z"/>
    <path fill-rule="evenodd" clip-rule="evenodd" d="M19.5 15.84C19.7982 15.84 20.04 15.5983 20.04 15.3C20.04 15.0018 19.7982 14.76 19.5 14.76C19.2018 14.76 18.96 15.0018 18.96 15.3C18.96 15.5983 19.2018 15.84 19.5 15.84ZM19.5 16.8C20.3284 16.8 21 16.1285 21 15.3C21 14.4716 20.3284 13.8 19.5 13.8C18.6716 13.8 18 14.4716 18 15.3C18 16.1285 18.6716 16.8 19.5 16.8Z"/>
    <path d="M11.9996 7.80029C12.331 7.80029 12.5996 8.06892 12.5996 8.40029V15.2003C12.5996 15.5317 12.331 15.8003 11.9996 15.8003C11.6682 15.8003 11.3996 15.5317 11.3996 15.2003V8.40029C11.3996 8.06892 11.6682 7.80029 11.9996 7.80029Z"/>
    <path d="M16 11.8011C16 12.1325 15.7314 12.4011 15.4 12.4011L8.6 12.4011C8.26863 12.4011 8 12.1325 8 11.8011C8 11.4698 8.26863 11.2011 8.6 11.2011L15.4 11.2011C15.7314 11.2011 16 11.4698 16 11.8011Z"/>
</svg>
