<svg width="24" height="24" viewBox="0 0 24 24" xmlns="http://www.w3.org/2000/svg">
    <path d="M0.5 12C0.5 11.7239 0.723858 11.5 1 11.5H23C23.2761 11.5 23.5 11.7239 23.5 12C23.5 12.2761 23.2761 12.5 23 12.5H1C0.723858 12.5 0.5 12.2761 0.5 12Z"/>
    <path d="M12 0.5C12.2761 0.5 12.5 0.723858 12.5 1V23C12.5 23.2761 12.2761 23.5 12 23.5C11.7239 23.5 11.5 23.2761 11.5 23V1C11.5 0.723858 11.7239 0.5 12 0.5Z"/>
    <path d="M12.0001 9.06836C10.3808 9.06836 9.06812 10.3811 9.06812 12.0004C9.06812 13.6197 10.3808 14.9324 12.0001 14.9324C13.6194 14.9324 14.9321 13.6197 14.9321 12.0004C14.9321 10.3811 13.6194 9.06836 12.0001 9.06836ZM8.06812 12.0004C8.06812 9.82878 9.82853 8.06836 12.0001 8.06836C14.1717 8.06836 15.9321 9.82878 15.9321 12.0004C15.9321 14.1719 14.1717 15.9324 12.0001 15.9324C9.82853 15.9324 8.06812 14.1719 8.06812 12.0004Z"/>
</svg>
