<svg width="24" height="24" viewBox="0 0 24 24" xmlns="http://www.w3.org/2000/svg">
    <path d="M13.5766 1.492C13.8571 1.66835 13.9416 2.03873 13.7652 2.31928L2.08594 20.9H23.2858C23.6172 20.9 23.8858 21.1686 23.8858 21.5C23.8858 21.8314 23.6172 22.1 23.2858 22.1H1.50425C0.813174 22.1 0.392652 21.3389 0.76042 20.7539L12.7493 1.68068C12.9256 1.40013 13.296 1.31565 13.5766 1.492Z"/>
    <path d="M5.51367 14.3519C8.07718 15.4408 9.87498 17.9816 9.87498 20.9424C9.87498 21.1299 9.86777 21.3157 9.85361 21.4995H11.0567C11.0688 21.3154 11.075 21.1296 11.075 20.9424C11.075 17.5527 9.05685 14.6343 6.15658 13.3232L5.51367 14.3519Z"/>
</svg>
