<svg width="24" height="24" viewBox="0 0 24 24" xmlns="http://www.w3.org/2000/svg">
    <path d="M23.25 12C23.25 12.4142 22.9142 12.75 22.5 12.75L2.5 12.75C2.08578 12.75 1.75 12.4142 1.75 12C1.75 11.5858 2.08578 11.25 2.5 11.25L22.5 11.25C22.9142 11.25 23.25 11.5858 23.25 12Z"/>
    <path d="M10.014 2.95385C10.3157 3.23774 10.33 3.7124 10.0461 4.01403L2.52994 12L10.0461 19.986C10.33 20.2876 10.3157 20.7623 10.014 21.0462C9.71239 21.33 9.23773 21.3157 8.95385 21.014L0.953848 12.514C0.682049 12.2252 0.682049 11.7748 0.953848 11.486L8.95385 2.98598C9.23774 2.68435 9.71239 2.66996 10.014 2.95385Z"/>
</svg>
