<svg width="24" height="24" viewBox="0 0 24 24" xmlns="http://www.w3.org/2000/svg">
    <path fill-rule="evenodd" clip-rule="evenodd" d="M11.9998 19.1816C15.9659 19.1816 19.181 15.9665 19.181 12.0005C19.181 8.03439 15.9659 4.81926 11.9998 4.81926C8.03378 4.81926 4.81865 8.03439 4.81865 12.0005C4.81865 15.9665 8.03378 19.1816 11.9998 19.1816ZM11.9998 20.3816C16.6286 20.3816 20.381 16.6293 20.381 12.0005C20.381 7.37165 16.6286 3.61926 11.9998 3.61926C7.37104 3.61926 3.61865 7.37165 3.61865 12.0005C3.61865 16.6293 7.37104 20.3816 11.9998 20.3816Z"/>
    <path d="M11.9998 20.3816C11.9999 20.3816 12 20.3816 12.0001 20.3816C16.6289 20.3816 20.3813 16.6293 20.3813 12.0005C20.3813 7.37165 16.6289 3.61926 12.0001 3.61926C12 3.61926 11.9999 3.61926 11.9998 3.61926L11.9998 20.3816Z"/>
    <path d="M12.4998 1V4.66677H11.4998V1H12.4998Z"/>
    <path d="M12.4998 19.3341V23.0009H11.4998V19.3341H12.4998Z"/>
    <path d="M20.1307 4.57539L17.5379 7.16819L16.8308 6.46108L19.4236 3.86829L20.1307 4.57539Z"/>
    <path d="M7.16878 17.5401L4.57598 20.1329L3.86887 19.4258L6.46167 16.833L7.16878 17.5401Z"/>
    <path d="M19.4238 20.1314L16.831 17.5386L17.5381 16.8315L20.1309 19.4243L19.4238 20.1314Z"/>
    <path d="M6.46159 7.16853L3.8688 4.57573L4.5759 3.86863L7.1687 6.46143L6.46159 7.16853Z"/>
    <path d="M23 12.4994L19.3332 12.4994L19.3332 11.4994L23 11.4994L23 12.4994Z"/>
    <path d="M4.66675 12.5012L0.999978 12.5012L0.999978 11.5012L4.66675 11.5012L4.66675 12.5012Z"/>
</svg>
