<svg width="24" height="24" viewBox="0 0 24 24" xmlns="http://www.w3.org/2000/svg">
    <path fill-rule="evenodd" clip-rule="evenodd" d="M14.3221 11.5848L21.3326 4.44737C21.797 3.97455 21.797 3.20795 21.3326 2.73512C20.8682 2.2623 20.1152 2.2623 19.6508 2.73512L12.6404 9.87258L14.3221 11.5848ZM22.0333 2.0217C21.1819 1.15486 19.8015 1.15486 18.9501 2.0217L11.2389 9.87258L14.3221 13.0117L22.0333 5.1608C22.8847 4.29396 22.8847 2.88854 22.0333 2.0217Z"/>
    <path d="M11.9353 10.5849L13.6171 12.2972L11.9353 14.0094L11.796 13.8677L11.9057 14.3142L11.5543 15.0484L11.9353 15.4363L12.636 14.7229L14.3178 13.0106L15.0185 12.2972L14.3178 11.5838L12.636 9.87151L11.9353 9.15808L11.2346 9.87151L9.55278 11.5838L8.85205 12.2972L9.11571 12.5656L9.7255 12.0945L10.3072 12.2425L11.9353 10.5849Z"/>
    <path d="M10.4374 15.7988L10.4879 15.7782C11.0833 15.5354 11.4999 14.9514 11.4999 14.2725C11.4999 13.375 10.7724 12.6475 9.87493 12.6475C9.09436 12.6475 8.44026 13.1988 8.28501 13.934C8.25884 14.058 8.24116 14.185 8.21762 14.3542C8.21526 14.3711 8.21285 14.3885 8.21037 14.4063C8.18514 14.5869 8.15234 14.8143 8.09426 15.0477C7.95005 15.6274 7.7532 16.333 7.52538 16.9977C7.51891 17.0166 7.51239 17.0355 7.50581 17.0545C8.55009 16.6823 9.68253 16.2073 10.3895 15.8247L10.4374 15.7988ZM7.00952 18.277C6.95779 18.2934 6.90663 18.3094 6.85609 18.3249C6.63582 18.3926 6.4275 18.4521 6.23673 18.5013C6.16645 18.5194 6.09854 18.5361 6.0333 18.5513C5.92516 18.5766 5.8123 18.3542 5.87345 18.2616C5.89591 18.2275 5.91834 18.1918 5.94072 18.1544C6.0391 17.9901 6.13647 17.7947 6.23139 17.5787C6.24971 17.537 6.26794 17.4945 6.28607 17.4514C6.62266 16.65 6.92413 15.6091 7.12384 14.8063C7.17238 14.6112 7.20002 14.4119 7.22768 14.2125C7.25021 14.0501 7.27275 13.8877 7.30659 13.7274C7.55749 12.5392 8.61207 11.6475 9.87493 11.6475C11.3247 11.6475 12.4999 12.8227 12.4999 14.2725C12.4999 15.3717 11.8242 16.3132 10.8655 16.7041C9.91725 17.2174 8.29087 17.8716 7.00952 18.277Z"/>
    <path d="M7.13197 8.35578L7.03954 7.86035C5.712 8.11911 4.43599 8.74306 3.36488 9.73927C2.29376 10.7355 1.5683 11.973 1.19543 13.2958L1.67172 13.4342L2.14801 13.5726C2.47173 12.4242 3.10104 11.3501 4.03271 10.4836C4.96439 9.61706 6.07184 9.07585 7.2244 8.8512L7.13197 8.35578ZM2.88156 20.6267C1.9044 19.5377 1.29188 18.2406 1.03711 16.8909L1.52374 16.795L2.01037 16.699C2.23164 17.8712 2.7632 18.9977 3.61381 19.9457C4.46442 20.8937 5.51841 21.5343 6.64505 21.8644L6.50728 22.3492L6.36951 22.8339C5.07229 22.4538 3.85873 21.7158 2.88156 20.6267ZM9.80819 22.5023L9.90062 22.9977C11.2282 22.7389 12.5042 22.115 13.5753 21.1188C14.6464 20.1226 15.3718 18.885 15.7447 17.5623L15.2684 17.4239L14.7921 17.2855C14.4684 18.4339 13.8391 19.508 12.9074 20.3745C11.9758 21.241 10.8683 21.7822 9.71575 22.0068L9.80819 22.5023Z"/>
</svg>
