<svg width="24" height="24" viewBox="0 0 24 24" xmlns="http://www.w3.org/2000/svg">
    <path fill-rule="evenodd" clip-rule="evenodd" d="M17.5 6H6.5C3.46243 6 1 8.46243 1 11.5C1 14.5376 3.46243 17 6.5 17H17.5C20.5376 17 23 14.5376 23 11.5C23 8.46243 20.5376 6 17.5 6ZM6.5 5C2.91015 5 0 7.91015 0 11.5C0 15.0899 2.91015 18 6.5 18H17.5C21.0899 18 24 15.0899 24 11.5C24 7.91015 21.0899 5 17.5 5H6.5Z"/>
    <path fill-rule="evenodd" clip-rule="evenodd" d="M18 10H6C5.44772 10 5 10.4477 5 11V12C5 12.5523 5.44772 13 6 13H18C18.5523 13 19 12.5523 19 12V11C19 10.4477 18.5523 10 18 10ZM6 9C4.89543 9 4 9.89543 4 11V12C4 13.1046 4.89543 14 6 14H18C19.1046 14 20 13.1046 20 12V11C20 9.89543 19.1046 9 18 9H6Z"/>
</svg>
