<svg width="24" height="24" viewBox="0 0 24 24" xmlns="http://www.w3.org/2000/svg">
    <path fill-rule="evenodd" clip-rule="evenodd" d="M3.55707 5.0189C1.99497 6.581 1.99497 9.11365 3.55707 10.6758L13.8101 20.9288C15.3722 22.4909 17.9049 22.4909 19.467 20.9288L23.0023 17.3933L18.2293 12.6204L16.24 14.6097L9.87605 8.24574L11.8654 6.25637L7.09245 1.4834L3.55707 5.0189ZM4.26418 5.726C3.0926 6.89758 3.0926 8.79707 4.26418 9.96865L14.5172 20.2217C15.6888 21.3933 17.5883 21.3933 18.7599 20.2217L21.588 17.3933L18.2293 14.0346L16.24 16.0239L8.46183 8.24574L10.4512 6.25637L7.09245 2.89761L4.26418 5.726Z"/>
</svg>
