<svg width="24" height="24" viewBox="0 0 24 24" xmlns="http://www.w3.org/2000/svg">
    <path d="M24 12C24 18.6274 18.6274 24 12 24C5.37258 24 0 18.6274 0 12C0 5.37258 5.37258 0 12 0C18.6274 0 24 5.37258 24 12Z" />
    <path d="M17.1537 6.84615C17.349 7.04142 17.349 7.358 17.1537 7.55326L7.55375 17.1533C7.35849 17.3485 7.0419 17.3485 6.84664 17.1533C6.65138 16.958 6.65138 16.6414 6.84664 16.4462L16.4466 6.84615C16.6419 6.65089 16.9585 6.65089 17.1537 6.84615Z" fill="#fff"/>
    <path d="M17.1534 17.1533C16.9581 17.3485 16.6415 17.3485 16.4463 17.1533L6.84625 7.55326C6.65099 7.358 6.65099 7.04142 6.84625 6.84615C7.04151 6.65089 7.3581 6.65089 7.55336 6.84615L17.1534 16.4462C17.3486 16.6414 17.3486 16.958 17.1534 17.1533Z" fill="#fff"/>
</svg>
