<svg width="24" height="24" viewBox="0 0 24 24" xmlns="http://www.w3.org/2000/svg">
    <path fill-rule="evenodd" clip-rule="evenodd" d="M17.9505 8H6.04967L4.12364 18.6439C3.90157 19.8711 4.84455 21 6.09168 21H17.9085C19.1556 21 20.0986 19.8711 19.8766 18.6439L17.9505 8ZM6.04967 7C5.56607 7 5.15176 7.34607 5.06565 7.82194L3.13962 18.4658C2.80652 20.3066 4.22099 22 6.09168 22H17.9085C19.7792 22 21.1937 20.3066 20.8606 18.4658L18.9345 7.82194C18.8484 7.34607 18.4341 7 17.9505 7H6.04967Z"/>
    <path d="M11.5 2.5C10.6716 2.5 10 3.17157 10 4V11C10 11.2761 9.77614 11.5 9.5 11.5C9.22386 11.5 9 11.2761 9 11V4C9 2.61929 10.1193 1.5 11.5 1.5H12.5C13.8807 1.5 15 2.61929 15 4V11C15 11.2761 14.7761 11.5 14.5 11.5C14.2239 11.5 14 11.2761 14 11V4C14 3.17157 13.3284 2.5 12.5 2.5H11.5Z"/>
</svg>
