<svg width="24" height="24" viewBox="0 0 24 24" xmlns="http://www.w3.org/2000/svg">
    <path d="M24 12C24 18.6274 18.6274 24 12 24C5.37258 24 0 18.6274 0 12C0 5.37258 5.37258 0 12 0C18.6274 0 24 5.37258 24 12Z" />
    <path d="M11.1133 3.6001C10.5414 3.6001 10.086 4.07885 10.1146 4.65004L10.6607 15.5731C10.6873 16.1053 11.1266 16.5232 11.6595 16.5232H12.3416C12.8745 16.5232 13.3137 16.1053 13.3403 15.5731L13.8865 4.65004C13.915 4.07885 13.4596 3.6001 12.8877 3.6001H11.1133ZM11.7084 17.8157C11.1561 17.8157 10.7084 18.2634 10.7084 18.8157V19.4003C10.7084 19.9526 11.1561 20.4003 11.7084 20.4003H12.293C12.8453 20.4003 13.293 19.9526 13.293 19.4003V18.8157C13.293 18.2634 12.8453 17.8157 12.293 17.8157H11.7084Z" fill="#F5F5F5"/>
</svg>
