<svg width="25" height="24" viewBox="0 0 25 24" fill="none" xmlns="http://www.w3.org/2000/svg">
    <path fill-rule="evenodd" clip-rule="evenodd" d="M12.1828 14.9997C14.171 14.9997 15.7828 13.388 15.7828 11.3997C15.7828 9.41151 14.171 7.79973 12.1828 7.79973C10.1946 7.79973 8.58281 9.41151 8.58281 11.3997C8.58281 13.388 10.1946 14.9997 12.1828 14.9997ZM12.1828 16.1997C14.8338 16.1997 16.9828 14.0507 16.9828 11.3997C16.9828 8.74876 14.8338 6.59973 12.1828 6.59973C9.53185 6.59973 7.38281 8.74876 7.38281 11.3997C7.38281 14.0507 9.53185 16.1997 12.1828 16.1997Z" fill="#1E212E"/>
    <path fill-rule="evenodd" clip-rule="evenodd" d="M0.372735 6.9692C0.578592 6.82254 0.866716 6.86729 1.01628 7.06914L2.91194 9.62759L5.52109 7.76877C5.72694 7.62211 6.01507 7.66686 6.16463 7.86872C6.31419 8.07057 6.26856 8.3531 6.0627 8.49975L3.08082 10.6241C2.87496 10.7708 2.58684 10.726 2.43727 10.5242L0.270808 7.60023C0.121245 7.39838 0.166879 7.11585 0.372735 6.9692Z" fill="#1E212E"/>
    <path fill-rule="evenodd" clip-rule="evenodd" d="M2.43823 9.78352H3.3643C3.82485 5.4677 7.54686 2.10362 12.0702 2.10362C16.7471 2.10362 20.5675 5.7002 20.8116 10.2267C20.8253 10.4807 21.0302 10.6873 21.2847 10.6873C21.5391 10.6873 21.7466 10.4807 21.7342 10.2266C21.4891 5.2009 17.2561 1.20007 12.0702 1.20007C7.03753 1.20007 2.90235 4.9678 2.43823 9.78352Z" fill="#1E212E"/>
    <path fill-rule="evenodd" clip-rule="evenodd" d="M20.9279 13.6971C20.2319 17.7547 16.6317 20.8459 12.2953 20.8455C7.61851 20.8451 3.79873 17.2489 3.55503 12.7233C3.54135 12.4692 3.33642 12.2626 3.08198 12.2626C2.82754 12.2626 2.62007 12.4691 2.63244 12.7233C2.87706 17.748 7.10948 21.7484 12.2952 21.7489C17.0906 21.7493 21.0715 18.3291 21.8377 13.8408L23.3494 15.881C23.4989 16.0828 23.7871 16.1276 23.9929 15.9809C24.1988 15.8343 24.2444 15.5517 24.0948 15.3499L21.9284 12.4259C21.7788 12.2241 21.4907 12.1793 21.2848 12.326L18.3029 14.4503C18.0971 14.597 18.0515 14.8795 18.201 15.0814C18.3506 15.2832 18.6387 15.328 18.8446 15.1813L20.9279 13.6971Z" fill="#1E212E"/>
</svg>
