<svg width="25" height="24" viewBox="0 0 25 24" xmlns="http://www.w3.org/2000/svg">
    <path fill-rule="evenodd" clip-rule="evenodd" d="M12.1828 14.9999C14.171 14.9999 15.7828 13.3881 15.7828 11.3999C15.7828 9.41163 14.171 7.79985 12.1828 7.79985C10.1946 7.79985 8.58281 9.41163 8.58281 11.3999C8.58281 13.3881 10.1946 14.9999 12.1828 14.9999ZM12.1828 16.1999C14.8338 16.1999 16.9828 14.0508 16.9828 11.3999C16.9828 8.74889 14.8338 6.59985 12.1828 6.59985C9.53185 6.59985 7.38281 8.74889 7.38281 11.3999C7.38281 14.0508 9.53185 16.1999 12.1828 16.1999Z"/>
    <path d="M0.372735 6.96907C0.578592 6.82242 0.866716 6.86716 1.01628 7.06902L2.91194 9.62746L5.52109 7.76865C5.72694 7.62199 6.01507 7.66674 6.16463 7.86859C6.31419 8.07045 6.26856 8.35297 6.0627 8.49963L3.08082 10.624C2.87496 10.7706 2.58684 10.7259 2.43727 10.524L0.270808 7.60011C0.121245 7.39826 0.166879 7.11573 0.372735 6.96907Z"/>
    <path d="M2.43823 9.78365H3.3643C3.82485 5.46782 7.54686 2.10374 12.0702 2.10374C16.7471 2.10374 20.5675 5.70032 20.8116 10.2268C20.8253 10.4809 21.0302 10.6874 21.2847 10.6874C21.5391 10.6874 21.7466 10.4808 21.7342 10.2267C21.4891 5.20102 17.2561 1.2002 12.0702 1.2002C7.03753 1.2002 2.90235 4.96792 2.43823 9.78365Z"/>
    <path d="M20.9279 13.6973C20.2319 17.7548 16.6317 20.846 12.2953 20.8456C7.61851 20.8452 3.79873 17.249 3.55503 12.7234C3.54135 12.4693 3.33642 12.2627 3.08198 12.2627C2.82754 12.2627 2.62007 12.4692 2.63244 12.7234C2.87706 17.7481 7.10948 21.7486 12.2952 21.749C17.0906 21.7495 21.0715 18.3292 21.8377 13.8409L23.3494 15.8811C23.4989 16.0829 23.7871 16.1277 23.9929 15.981C24.1988 15.8344 24.2444 15.5519 24.0948 15.35L21.9284 12.4261C21.7788 12.2242 21.4907 12.1795 21.2848 12.3261L18.3029 14.4505C18.0971 14.5971 18.0515 14.8796 18.201 15.0815C18.3506 15.2834 18.6387 15.3281 18.8446 15.1814L20.9279 13.6973Z"/>
</svg>
