<svg width="24" height="24" viewBox="0 0 24 24" xmlns="http://www.w3.org/2000/svg">
    <path fill-rule="evenodd" clip-rule="evenodd" d="M19.0928 4.62502L6.1844 8.0873L8.31818 16.0587L21.2266 12.5964L19.0928 4.62502ZM5.92582 7.12131C5.39239 7.26439 5.07573 7.81286 5.21854 8.34636L7.35232 16.3178C7.49513 16.8513 8.04333 17.1678 8.57676 17.0247L21.4852 13.5624C22.0186 13.4193 22.3353 12.8709 22.1925 12.3374L20.0587 4.36596C19.9159 3.83245 19.3677 3.51595 18.8343 3.65903L5.92582 7.12131Z"/>
    <path d="M5.23558 8.41176C5.0938 8.34166 4.93651 8.3042 4.77535 8.3042C3.78045 8.3042 3.0342 9.2143 3.22913 10.1899L3.84473 13.271C3.91778 13.6366 3.85206 14.0163 3.66039 14.3361L2.52117 16.2367C2.3792 16.4736 2.45612 16.7806 2.69297 16.9226C2.92982 17.0646 3.23692 16.9877 3.37889 16.7508L4.51811 14.8502C4.83756 14.3172 4.94709 13.6844 4.82535 13.0751L4.20975 9.99398C4.13845 9.63711 4.41142 9.3042 4.77535 9.3042C4.78554 9.3042 4.79531 9.30825 4.80251 9.31546L5.72454 10.2384L5.23558 8.41176ZM15.0757 15.2816L14.9534 15.8936C14.858 16.371 14.5369 16.7723 14.0922 16.9702L5.81952 20.6507C5.56722 20.7629 5.45368 21.0584 5.56593 21.3107C5.67817 21.563 5.9737 21.6766 6.226 21.5643L14.4987 17.8839C15.2399 17.5541 15.7751 16.8851 15.934 16.0895L16.1532 14.9926L15.0757 15.2816Z"/>
    <path d="M5.76698 10.3486C5.69558 10.0818 5.85391 9.80761 6.12063 9.73607L19.9723 6.0208C20.239 5.94926 20.5131 6.10751 20.5845 6.37426C20.6559 6.64101 20.4976 6.91525 20.2309 6.98679L6.3792 10.7021C6.11249 10.7736 5.83839 10.6153 5.76698 10.3486Z"/>
    <path d="M15.1074 11.5709L19.0415 10.5157L19.3001 11.4817L15.366 12.5369L15.1074 11.5709Z"/>
    <path d="M7.15286 3.73496C7.29931 3.8814 7.29931 4.11884 7.15286 4.26529L6.15286 5.26529C6.00641 5.41173 5.76898 5.41173 5.62253 5.26529C5.47608 5.11884 5.47608 4.8814 5.62253 4.73496L6.62253 3.73496C6.76898 3.58851 7.00641 3.58851 7.15286 3.73496Z"/>
    <path d="M4.38783 2.62505C4.59493 2.62505 4.76283 2.79294 4.76283 3.00005V4.41426C4.76283 4.62137 4.59493 4.78926 4.38783 4.78926C4.18072 4.78926 4.01283 4.62137 4.01283 4.41426L4.01283 3.00005C4.01283 2.79294 4.18072 2.62505 4.38783 2.62505Z"/>
    <path d="M1.73483 3.84726C1.88128 3.70082 2.11872 3.70082 2.26517 3.84726L3.26517 4.84726C3.41161 4.99371 3.41161 5.23115 3.26517 5.37759C3.11872 5.52404 2.88128 5.52404 2.73483 5.37759L1.73483 4.37759C1.58839 4.23115 1.58839 3.99371 1.73483 3.84726Z"/>
</svg>
