<svg width="24" height="24" viewBox="0 0 24 24" xmlns="http://www.w3.org/2000/svg">
    <path d="M21.26 8.16003C20.87 8.02003 20.4399 8.22003 20.2999 8.61003L20.02 9.38003C18.92 6.01003 15.76 3.64003 12.07 3.64003C7.44995 3.63003 3.69995 7.38003 3.69995 12C3.69995 16.09 6.74995 19.65 10.79 20.27C11.03 20.31 11.26 20.33 11.5 20.35H11.59L11.66 20.3C11.86 20.16 11.97 19.93 11.97 19.69C11.97 19.39 11.8 19.13 11.54 19.01L11.46 18.99C11.35 18.99 11.23 18.97 11.12 18.95C7.65995 18.48 5.05995 15.5 5.05995 12C5.05995 8.13003 8.20995 4.99003 12.07 4.99003C15.15 4.99003 17.83 7.01003 18.75 9.83003L18.05 9.37003C17.7 9.15003 17.24 9.25003 17.01 9.59003C16.79 9.94003 16.89 10.4 17.23 10.63L19.39 12.02C19.55 12.12 19.7299 12.17 19.91 12.17C20.01 12.17 20.1099 12.16 20.2099 12.12C20.49 12.03 20.71 11.82 20.84 11.49L21.7099 9.11003C21.8499 8.72003 21.65 8.29003 21.26 8.15003V8.16003Z"/>
</svg>
