<svg width="24" height="24" viewBox="0 0 24 24" xmlns="http://www.w3.org/2000/svg">
    <path d="M19.6242 4.37557C19.8585 4.60988 19.8585 4.98978 19.6242 5.22409L5.22422 19.6241C4.9899 19.8584 4.61 19.8584 4.37569 19.6241C4.14137 19.3898 4.14137 19.0099 4.37569 18.7756L18.7757 4.37557C19.01 4.14125 19.3899 4.14125 19.6242 4.37557Z"/>
    <path d="M19.6243 19.6243C19.39 19.8587 19.0101 19.8587 18.7758 19.6243L4.37578 5.22434C4.14147 4.99002 4.14147 4.61012 4.37578 4.37581C4.6101 4.14149 4.99 4.14149 5.22431 4.37581L19.6243 18.7758C19.8586 19.0101 19.8586 19.39 19.6243 19.6243Z"/>
</svg>
