<svg width="24" height="24" viewBox="0 0 24 24" xmlns="http://www.w3.org/2000/svg">
    <path d="M19.5414 9.54515C19.7484 9.28639 20.126 9.24444 20.3848 9.45145L22.7315 11.3288C23.1819 11.6809 23.1449 12.3317 22.7475 12.668L22.7412 12.6733L20.3848 14.5585C20.126 14.7655 19.7484 14.7235 19.5414 14.4648C19.3344 14.206 19.3764 13.8285 19.6351 13.6214L21.6557 12.005L19.6351 10.3885C19.3764 10.1815 19.3344 9.80391 19.5414 9.54515Z"/>
    <path d="M15.45 12C15.45 11.6687 15.7186 11.4 16.05 11.4H21.8C22.1313 11.4 22.4 11.6687 22.4 12C22.4 12.3314 22.1313 12.6 21.8 12.6H16.05C15.7186 12.6 15.45 12.3314 15.45 12Z"/>
    <path d="M7.04995 7.10002C4.34376 7.10002 2.14995 9.29383 2.14995 12C2.14995 14.7062 4.34376 16.9 7.04995 16.9C9.75615 16.9 11.95 14.7062 11.95 12C11.95 9.29383 9.75615 7.10002 7.04995 7.10002ZM0.949951 12C0.949951 8.63109 3.68101 5.90002 7.04995 5.90002C10.4189 5.90002 13.15 8.63109 13.15 12C13.15 15.369 10.4189 18.1 7.04995 18.1C3.68101 18.1 0.949951 15.369 0.949951 12Z"/>
</svg>
