<svg width="24" height="24" viewBox="0 0 24 24" xmlns="http://www.w3.org/2000/svg">
    <path d="M5.73135 9.54515C5.93836 9.28639 6.31594 9.24444 6.57469 9.45145L8.9214 11.3288C9.3718 11.6809 9.33485 12.3317 8.93744 12.668L8.93114 12.6733L6.57469 14.5585C6.31594 14.7655 5.93836 14.7235 5.73135 14.4648C5.52435 14.206 5.5663 13.8285 5.82506 13.6214L7.84566 12.005L5.82506 10.3885C5.5663 10.1815 5.52435 9.80391 5.73135 9.54515Z"/>
    <path d="M1.6499 12C1.6499 11.6687 1.91853 11.4 2.2499 11.4H7.9999C8.33127 11.4 8.5999 11.6687 8.5999 12C8.5999 12.3314 8.33127 12.6 7.9999 12.6H2.2499C1.91853 12.6 1.6499 12.3314 1.6499 12Z"/>
    <path d="M16.2499 7.10002C13.5437 7.10002 11.3499 9.29383 11.3499 12C11.3499 14.7062 13.5437 16.9 16.2499 16.9C18.9561 16.9 21.1499 14.7062 21.1499 12C21.1499 9.29383 18.9561 7.10002 16.2499 7.10002ZM10.1499 12C10.1499 8.63109 12.881 5.90002 16.2499 5.90002C19.6188 5.90002 22.3499 8.63109 22.3499 12C22.3499 15.369 19.6188 18.1 16.2499 18.1C12.881 18.1 10.1499 15.369 10.1499 12Z"/>
</svg>
