<svg width="24" height="24" viewBox="0 0 24 24" fill="none" xmlns="http://www.w3.org/2000/svg">
    <ellipse cx="12" cy="12" rx="12" ry="12" fill="#1E212E"/>
    <path d="M20.4856 3.51489L18.0003 6.00021" stroke="white"/>
    <path d="M3.51465 20.4854L5.99991 18.0001" stroke="white"/>
    <path d="M18.0106 5.98946C19.4104 7.38921 19.4104 9.65864 18.0106 11.0584L17.0096 12.0595L11.9406 6.99053L12.9417 5.98946C14.3414 4.58972 16.6109 4.58972 18.0106 5.98946Z" stroke="white"/>
    <path d="M5.98986 18.0105C4.59012 16.6108 4.59012 14.3414 5.98986 12.9416L6.99093 11.9405L12.0599 17.0095L11.0588 18.0105C9.65904 19.4103 7.38961 19.4103 5.98986 18.0105Z" stroke="white"/>
    <path d="M10.7287 15.6783L13.5571 12.8499" stroke="white" stroke-linecap="round"/>
    <path d="M8.32196 13.272L11.1504 10.4436" stroke="white" stroke-linecap="round"/>
</svg>
