<svg width="24" height="24" viewBox="0 0 24 24" xmlns="http://www.w3.org/2000/svg">
    <path d="M24 12C24 18.6274 18.6274 24 12 24C5.37258 24 0 18.6274 0 12C0 5.37258 5.37258 0 12 0C18.6274 0 24 5.37258 24 12Z"/>
    <path d="M17.6467 5.64662L20.132 3.1613L20.8391 3.86841L18.3538 6.35373L17.6467 5.64662Z" fill="#fff"/>
    <path d="M6.3535 18.3537L3.86824 20.8389L3.16113 20.1318L5.64639 17.6466L6.3535 18.3537Z" fill="#fff"/>
    <path fill-rule="evenodd" d="M17.0096 11.3524L17.6571 10.7048C18.8616 9.50035 18.8616 7.5475 17.6571 6.34301C16.4526 5.13853 14.4997 5.13853 13.2953 6.34301L12.6477 6.99053L17.0096 11.3524ZM18.3642 11.4119C19.9592 9.81694 19.9592 7.23092 18.3642 5.63591C16.7692 4.0409 14.1832 4.0409 12.5881 5.63591L11.2335 6.99053L17.0096 12.7666L18.3642 11.4119Z" fill="#fff"/>
    <path fill-rule="evenodd" d="M6.99093 12.6476L6.34342 13.2952C5.13893 14.4996 5.13893 16.4525 6.34342 17.657C7.5479 18.8615 9.50075 18.8615 10.7052 17.657L11.3528 17.0095L6.99093 12.6476ZM5.63631 12.5881C4.0413 14.1831 4.0413 16.7691 5.63631 18.3641C7.23132 19.9591 9.81734 19.9591 11.4123 18.3641L12.767 17.0095L6.99093 11.2334L5.63631 12.5881Z" fill="#fff"/>
    <path d="M13.9106 12.4963C14.1059 12.6916 14.1059 13.0081 13.9106 13.2034L11.0822 16.0318C10.8869 16.2271 10.5703 16.2271 10.3751 16.0318C10.1798 15.8366 10.1798 15.52 10.3751 15.3247L13.2035 12.4963C13.3988 12.301 13.7153 12.301 13.9106 12.4963Z" fill="#fff"/>
    <path d="M11.5039 10.0901C11.6991 10.2853 11.6991 10.6019 11.5039 10.7972L8.67544 13.6256C8.48018 13.8208 8.1636 13.8208 7.96833 13.6256C7.77307 13.4303 7.77307 13.1137 7.96833 12.9185L10.7968 10.0901C10.992 9.89479 11.3086 9.89479 11.5039 10.0901Z" fill="#fff"/>
</svg>
