<svg width="24" height="24" viewBox="0 0 24 24" xmlns="http://www.w3.org/2000/svg">
    <path fill-rule="evenodd" clip-rule="evenodd" d="M12 2.2C6.58761 2.2 2.2 6.58761 2.2 12C2.2 17.4124 6.58761 21.8 12 21.8C17.4124 21.8 21.8 17.4124 21.8 12C21.8 6.58761 17.4124 2.2 12 2.2ZM12 1C5.92487 1 1 5.92487 0.999999 12C0.999999 18.0751 5.92487 23 12 23C18.0751 23 23 18.0751 23 12C23 5.92487 18.0751 1 12 1Z"/>
    <path d="M12 0.999998C5.92487 0.999998 1 5.92487 1 12C1 18.0751 5.92487 23 12 23L12 0.999998Z"/>
</svg>
