<svg width="24" height="24" viewBox="0 0 24 24" xmlns="http://www.w3.org/2000/svg">
    <path d="M4.18996 8.16001C4.57996 8.02001 5.00996 8.22001 5.14996 8.61001L5.42995 9.38001C6.52995 6.01001 9.68996 3.64001 13.38 3.64001C17.99 3.64001 21.75 7.39001 21.75 12.01C21.75 16.1 18.7 19.66 14.66 20.28C14.42 20.32 14.19 20.34 13.95 20.36H13.86L13.79 20.31C13.59 20.17 13.48 19.94 13.48 19.7C13.48 19.4 13.65 19.14 13.91 19.02L13.99 19C14.1 19 14.22 18.98 14.33 18.96C17.79 18.49 20.39 15.51 20.39 12.01C20.39 8.14001 17.24 5.00001 13.38 5.00001C10.3 5.00001 7.61995 7.02001 6.69995 9.84001L7.39996 9.38001C7.74996 9.16001 8.20995 9.26001 8.43995 9.60001C8.65995 9.95001 8.55996 10.41 8.21996 10.64L6.05995 12.03C5.89995 12.13 5.71995 12.18 5.53996 12.18C5.43995 12.18 5.33995 12.17 5.23995 12.13C4.95995 12.04 4.73996 11.83 4.60996 11.5L3.73996 9.12001C3.59996 8.73001 3.79996 8.30001 4.18996 8.16001Z"/>
</svg>
