<svg width="24" height="24" viewBox="0 0 24 24" xmlns="http://www.w3.org/2000/svg">
    <path fill-rule="evenodd" clip-rule="evenodd" d="M18.2616 21.3157L18.2696 21.3158C18.2912 21.3162 18.3129 21.3164 18.3347 21.3164C20.5438 21.3164 22.3347 19.5255 22.3347 17.3164C22.3347 15.1073 20.5438 13.3164 18.3347 13.3164C16.5911 13.3164 15.1056 14.4326 14.5587 15.9924L14.3028 16.7224L13.5319 16.6581C13.4669 16.6527 13.4009 16.6499 13.3341 16.6499C12.0454 16.6499 11.0007 17.6945 11.0007 18.9832C11.0007 20.2719 12.0454 21.3165 13.3341 21.3165C13.3514 21.3165 13.3688 21.3163 13.386 21.316L13.3969 21.3157H18.2616ZM18.2537 22.3157C18.2806 22.3161 18.3076 22.3164 18.3347 22.3164C21.0961 22.3164 23.3347 20.0778 23.3347 17.3164C23.3347 14.555 21.0961 12.3164 18.3347 12.3164C16.1533 12.3164 14.2981 13.7134 13.6151 15.6616C13.5224 15.6538 13.4287 15.6499 13.3341 15.6499C11.4931 15.6499 10.0007 17.1423 10.0007 18.9832C10.0007 20.8241 11.4931 22.3165 13.3341 22.3165C13.3587 22.3165 13.3832 22.3162 13.4077 22.3157H18.2537Z"/>
    <path d="M9.87284 1.56697C10.006 1.55105 10.14 1.53792 10.2749 1.52762C10.4565 1.51375 10.6396 1.50504 10.8239 1.50164C10.8829 1.50055 10.942 1.5 11.0012 1.5C11.2682 1.5 11.3229 1.88576 11.0858 2.00833C11.0575 2.02296 11.0293 2.03779 11.0012 2.05282C10.8386 2.13993 10.68 2.23371 10.5259 2.3338C10.4269 2.39813 10.3297 2.46505 10.2345 2.53449C8.60262 3.72445 7.54219 5.65107 7.54219 7.82536C7.54219 11.4394 10.4719 14.3691 14.086 14.3691C14.157 14.3691 14.2277 14.368 14.2982 14.3658C14.0734 14.6728 13.8828 15.0064 13.732 15.361C9.73004 15.1761 6.54219 11.873 6.54219 7.82536C6.54219 5.95502 7.22294 4.24437 8.34897 2.92686C5.00488 4.03757 2.59302 7.19123 2.59302 10.9082C2.59302 15.2174 5.83469 18.7695 10.0125 19.2589C10.0421 19.6215 10.1299 19.9677 10.2663 20.2881C5.41379 19.9132 1.59302 15.8569 1.59302 10.9082C1.59302 6.09407 5.20883 2.12445 9.87284 1.56697ZM20.2405 12.6922C20.2816 12.4781 20.3154 12.2614 20.3418 12.0423C20.3579 11.9078 20.3713 11.7724 20.3817 11.6362C20.3956 11.4536 20.4044 11.2696 20.4078 11.0843C20.4089 11.0257 20.4094 10.967 20.4094 10.9082C20.4094 10.6426 20.0257 10.588 19.9038 10.824C19.8892 10.8522 19.8745 10.8802 19.8595 10.9082C19.772 11.0717 19.6778 11.2311 19.5772 11.3859C19.5122 11.4859 19.4446 11.584 19.3745 11.6801C19.2051 11.912 19.0208 12.1325 18.8231 12.3399C19.3205 12.3881 19.7966 12.5091 20.2405 12.6922Z"/>
</svg>
