<svg width="24" height="24" viewBox="0 0 24 24" xmlns="http://www.w3.org/2000/svg">
    <path fill-rule="evenodd" clip-rule="evenodd" d="M8.11111 3.71429C8.11111 3.39869 8.35984 3.14286 8.66667 3.14286H15.3333C15.6402 3.14286 15.8889 3.39869 15.8889 3.71429V5H8.11111V3.71429ZM7 5V3.71429C7 2.76751 7.74619 2 8.66667 2H15.3333C16.2538 2 17 2.76751 17 3.71429V5H17.9805H20.4706C20.763 5 21 5.22386 21 5.5C21 5.77614 20.763 6 20.4706 6H18.9983C19.0018 6.06361 18.9999 6.12855 18.992 6.19429L17.3198 20.1386C17.1923 21.202 16.325 22 15.2969 22H8.70309C7.67497 22 6.80773 21.202 6.68021 20.1386L5.00802 6.19429C5.00014 6.12855 4.99817 6.06361 5.00166 6H3.52941C3.23703 6 3 5.77614 3 5.5C3 5.22386 3.23703 5 3.52941 5H6.01946H7ZM17.9805 6.0625L6.01946 6.0625L7.69165 20.0068C7.75541 20.5385 8.18903 20.9375 8.70309 20.9375H15.2969C15.811 20.9375 16.2446 20.5385 16.3083 20.0068L17.9805 6.0625Z"/>
</svg>
