<svg width="24" height="24" viewBox="0 0 24 24" fill="none" xmlns="http://www.w3.org/2000/svg">
    <path fill-rule="evenodd" clip-rule="evenodd" d="M7.8001 2.4001C7.8001 2.06873 8.06873 1.8001 8.4001 1.8001H15.6001C15.9315 1.8001 16.2001 2.06873 16.2001 2.4001V4.2001C16.2001 4.20013 16.2001 4.20016 16.2001 4.2002H7.8001C7.8001 4.20016 7.8001 4.20013 7.8001 4.2001V2.4001ZM6.6001 4.2002C6.6001 4.20016 6.6001 4.20013 6.6001 4.2001V2.4001C6.6001 1.40599 7.40598 0.600098 8.4001 0.600098H15.6001C16.5942 0.600098 17.4001 1.40599 17.4001 2.4001V4.2001C17.4001 4.20013 17.4001 4.20016 17.4001 4.2002H19.0408H21.6C21.9314 4.2002 22.2001 4.46882 22.2001 4.8002C22.2001 5.13157 21.9314 5.4002 21.6 5.4002H20.2409C20.2409 5.44928 20.2378 5.49895 20.2315 5.54904L18.2629 21.2979C18.1128 22.4989 17.0918 23.4002 15.8814 23.4002H8.11879C6.90842 23.4002 5.88745 22.4989 5.73733 21.2979L3.76872 5.54904C3.76246 5.49895 3.75937 5.44927 3.75928 5.4002H2.40005C2.06868 5.4002 1.80005 5.13157 1.80005 4.8002C1.80005 4.46882 2.06868 4.2002 2.40005 4.2002H4.95945H6.6001ZM4.95945 5.40019L19.0408 5.4002L17.0722 21.149C16.9971 21.7496 16.4866 22.2002 15.8814 22.2002H8.11879C7.51361 22.2002 7.00312 21.7496 6.92806 21.149L4.95945 5.40019Z" fill="#1E212E"/>
</svg>
