<svg width="24" height="24" viewBox="0 0 24 24" xmlns="http://www.w3.org/2000/svg">
    <path fill-rule="evenodd" clip-rule="evenodd" d="M12.2 22.0002C17.6123 22.0002 22 17.6126 22 12.2002C22 6.7878 17.6123 2.4002 12.2 2.4002C6.78756 2.4002 2.39995 6.7878 2.39995 12.2002C2.39995 17.6126 6.78756 22.0002 12.2 22.0002ZM12.2 23.2002C18.2751 23.2002 23.2 18.2753 23.2 12.2002C23.2 6.12506 18.2751 1.2002 12.2 1.2002C6.12482 1.2002 1.19995 6.12506 1.19995 12.2002C1.19995 18.2753 6.12482 23.2002 12.2 23.2002Z"/>
    <path fill-rule="evenodd" clip-rule="evenodd" d="M12.1997 17.9997C15.403 17.9997 17.9997 15.403 17.9997 12.1997C17.9997 8.99646 15.403 6.39971 12.1997 6.39971C8.99646 6.39971 6.39971 8.99646 6.39971 12.1997C6.39971 15.403 8.99646 17.9997 12.1997 17.9997ZM12.1997 19.1997C16.0657 19.1997 19.1997 16.0657 19.1997 12.1997C19.1997 8.33371 16.0657 5.19971 12.1997 5.19971C8.33371 5.19971 5.19971 8.33371 5.19971 12.1997C5.19971 16.0657 8.33371 19.1997 12.1997 19.1997Z"/>
</svg>
