<svg width="24" height="24" viewBox="0 0 24 24" xmlns="http://www.w3.org/2000/svg">
    <path d="M5.46967 13.2695C5.76256 12.9766 6.23744 12.9766 6.53033 13.2695L12 18.7391L17.4697 13.2695C17.7626 12.9766 18.2374 12.9766 18.5303 13.2695C18.8232 13.5624 18.8232 14.0372 18.5303 14.3301L12.5303 20.3301C12.3897 20.4708 12.1989 20.5498 12 20.5498C11.8011 20.5498 11.6103 20.4708 11.4697 20.3301L5.46967 14.3301C5.17678 14.0372 5.17678 13.5624 5.46967 13.2695Z"/>
    <path d="M12 4.25C12.4142 4.25 12.75 4.58579 12.75 5L12.75 18.6C12.75 19.0142 12.4142 19.35 12 19.35C11.5858 19.35 11.25 19.0142 11.25 18.6L11.25 5C11.25 4.58579 11.5858 4.25 12 4.25Z"/>
    <path fill-rule="evenodd" clip-rule="evenodd" d="M20 1.2H4C2.4536 1.2 1.2 2.4536 1.2 4V20C1.2 21.5464 2.4536 22.8 4 22.8H20C21.5464 22.8 22.8 21.5464 22.8 20V4C22.8 2.4536 21.5464 1.2 20 1.2ZM4 0C1.79086 0 0 1.79086 0 4V20C0 22.2091 1.79086 24 4 24H20C22.2091 24 24 22.2091 24 20V4C24 1.79086 22.2091 0 20 0H4Z"/>
</svg>
