<svg width="24" height="24" viewBox="0 0 24 24" xmlns="http://www.w3.org/2000/svg">
    <path d="M0.600098 13.1999C0.600098 12.8685 0.868727 12.5999 1.2001 12.5999H5.17905C5.51042 12.5999 5.77905 12.8685 5.77905 13.1999C5.77905 13.5312 5.51042 13.7999 5.17905 13.7999H1.8001V22.1999H22.2001V13.7999H18.8212C18.4898 13.7999 18.2212 13.5312 18.2212 13.1999C18.2212 12.8685 18.4898 12.5999 18.8212 12.5999H22.8001C23.1315 12.5999 23.4001 12.8685 23.4001 13.1999V22.7999C23.4001 23.1312 23.1315 23.3999 22.8001 23.3999H1.2001C0.868727 23.3999 0.600098 23.1312 0.600098 22.7999V13.1999Z"/>
    <path d="M12 18.75C11.5858 18.75 11.25 18.4142 11.25 18L11.25 3.6C11.25 3.18579 11.5858 2.85 12 2.85C12.4142 2.85 12.75 3.18579 12.75 3.6L12.75 18C12.75 18.4142 12.4142 18.75 12 18.75Z"/>
    <path d="M18.5303 8.93023C18.2374 9.22313 17.7626 9.22313 17.4697 8.93023L12 3.46056L6.53033 8.93023C6.23744 9.22312 5.76256 9.22312 5.46967 8.93023C5.17678 8.63734 5.17678 8.16246 5.46967 7.86957L11.4697 1.86957C11.6103 1.72892 11.8011 1.6499 12 1.6499C12.1989 1.6499 12.3897 1.72892 12.5303 1.86957L18.5303 7.86957C18.8232 8.16247 18.8232 8.63734 18.5303 8.93023Z"/>
</svg>
