<svg width="24" height="24" viewBox="0 0 24 24" xmlns="http://www.w3.org/2000/svg">
    <path d="M12.97 18.1699C12.61 18.1699 12.3 17.9199 12.23 17.5499C12.16 17.1399 12.43 16.7499 12.84 16.6799C13.38 16.5799 13.9 16.3899 14.38 16.1099C14.74 15.8999 15.2 16.0199 15.41 16.3799C15.62 16.7399 15.5 17.1999 15.14 17.4099C14.51 17.7799 13.82 18.0299 13.1 18.1599C13.06 18.1599 13.01 18.1699 12.97 18.1699ZM9.26004 17.5399C9.14004 17.5399 9.01004 17.5099 8.90004 17.4499C8.25004 17.0899 7.68004 16.6199 7.22004 16.0599C6.96004 15.7399 7.00004 15.2699 7.32004 14.9999C7.64004 14.7399 8.11004 14.7799 8.38004 15.0999C8.73004 15.5199 9.15004 15.8699 9.63004 16.1299C9.99004 16.3299 10.13 16.7899 9.93004 17.1499C9.79004 17.3999 9.54004 17.5399 9.27004 17.5399H9.26004ZM17.17 14.6299C17.09 14.6299 17 14.6199 16.91 14.5899C16.52 14.4499 16.32 14.0199 16.46 13.6299C16.65 13.1099 16.74 12.5699 16.74 12.0099C16.74 11.5999 17.08 11.2299 17.49 11.2299C17.9 11.2299 18.24 11.5399 18.24 11.9499V12.0099C18.24 12.7399 18.11 13.4599 17.87 14.1399C17.76 14.4399 17.47 14.6299 17.16 14.6299H17.17ZM6.54004 12.7699C6.13004 12.7699 5.79004 12.4499 5.79004 12.0399V12.0099C5.79004 11.2899 5.90004 10.5899 6.13004 9.91995C6.26004 9.52995 6.69004 9.31995 7.08004 9.44995C7.47004 9.57995 7.68004 10.0099 7.55004 10.3999C7.38004 10.9199 7.29004 11.4599 7.29004 12.0199C7.29004 12.4299 6.95004 12.7899 6.54004 12.7899V12.7699ZM16.18 9.17995C15.97 9.17995 15.76 9.08995 15.61 8.91995C15.25 8.49995 14.82 8.13995 14.34 7.86995C13.98 7.66995 13.85 7.20995 14.06 6.84995C14.26 6.48995 14.72 6.35995 15.08 6.56995C15.71 6.92995 16.28 7.38995 16.75 7.94995C17.02 8.25995 16.98 8.73995 16.67 9.00995C16.53 9.12995 16.35 9.18995 16.18 9.18995V9.17995ZM9.21004 7.99995C8.95004 7.99995 8.69004 7.85995 8.56004 7.61995C8.36004 7.25995 8.48004 6.79995 8.84004 6.59995C9.45004 6.24995 10.14 6.00995 10.87 5.87995C11.29 5.80995 11.67 6.07995 11.74 6.47995C11.81 6.88995 11.54 7.27995 11.14 7.34995C10.57 7.44995 10.04 7.63995 9.58004 7.89995C9.46004 7.96995 9.34004 7.99995 9.21004 7.99995Z"/>
</svg>
