<svg width="24" height="24" viewBox="0 0 24 24" xmlns="http://www.w3.org/2000/svg">
    <path d="M21.0824 5.23305C21.2925 5.41221 21.3177 5.72779 21.1385 5.93793C19.8064 7.50038 18.6266 8.4011 17.538 8.86238C16.4361 9.32926 15.4665 9.32939 14.5964 9.16277C14.1682 9.08078 13.7656 8.95872 13.3933 8.83808C13.299 8.80754 13.2076 8.77743 13.1184 8.74802C12.8462 8.65835 12.5939 8.57521 12.3406 8.50652C11.6826 8.32812 11.1252 8.27971 10.55 8.52111C9.84988 8.81494 9.41541 9.06333 9.11131 9.28195C8.80987 9.49864 8.62173 9.696 8.4082 9.92159L8.40075 9.92946C8.18525 10.1572 7.94332 10.4128 7.56399 10.6876C7.18272 10.9637 6.67749 11.2492 5.92914 11.5672C4.41835 12.209 3.19609 12.3762 2.33587 12.3762C1.90662 12.3762 1.56975 12.3346 1.33439 12.2909C1.21675 12.269 1.12456 12.2467 1.05893 12.2288C1.02612 12.2198 0.999942 12.212 0.980546 12.2058L0.956551 12.1981L0.948398 12.1953L0.945287 12.1942L0.943974 12.1937L0.943378 12.1935C0.943097 12.1934 0.942823 12.1933 1.11073 11.7224L0.942823 12.1933C0.682717 12.1006 0.547035 11.8145 0.639768 11.5544C0.732092 11.2955 1.01601 11.1599 1.27519 11.2502L1.2811 11.2521C1.2884 11.2544 1.30214 11.2586 1.32218 11.264C1.36227 11.275 1.42755 11.2911 1.517 11.3077C1.69581 11.3409 1.9715 11.3762 2.33587 11.3762C3.0629 11.3762 4.15208 11.2357 5.5381 10.6468C6.23816 10.3493 6.67289 10.0982 6.97736 9.8777C7.2794 9.65892 7.4678 9.46042 7.68193 9.23418L7.68438 9.2316C7.90174 9.00194 8.14473 8.74522 8.5276 8.46998C8.90924 8.19563 9.41474 7.91306 10.163 7.59902C11.0362 7.23254 11.8522 7.33798 12.6023 7.54137C12.884 7.61775 13.1718 7.71264 13.45 7.80434C13.5349 7.83231 13.6188 7.85999 13.7015 7.88676C14.0642 8.00428 14.4191 8.11065 14.7845 8.18062C15.5016 8.31794 16.2638 8.3162 17.1478 7.94162C18.0451 7.56143 19.1055 6.7811 20.3775 5.28914C20.5567 5.07901 20.8723 5.05389 21.0824 5.23305ZM1.27499 11.2501C1.27487 11.2501 1.27489 11.2501 1.27503 11.2501L1.27499 11.2501Z"/>
    <path d="M21.389 6.48185C21.5891 6.29159 21.9056 6.29961 22.0959 6.49975L23.2516 7.71551C23.3399 7.80844 23.3892 7.93177 23.3892 8.06L22.8892 8.06C23.3892 8.06 23.3892 8.06023 23.3892 8.06046L23.3892 8.06093L23.3892 8.06193L23.3892 8.0641L23.3891 8.06914L23.3888 8.08201C23.3886 8.09181 23.388 8.10402 23.3871 8.1185C23.3853 8.14743 23.382 8.18551 23.3759 8.23139C23.3638 8.32302 23.3404 8.44674 23.2953 8.59143C23.2048 8.88194 23.0271 9.25623 22.6814 9.62013C22.2072 10.1192 21.5386 10.0734 21.14 9.99039C20.9229 9.94518 20.7317 9.87848 20.5966 9.82443C20.5282 9.79709 20.4723 9.77221 20.4324 9.7536C20.4124 9.74427 20.3962 9.73646 20.3844 9.73063L20.37 9.72341L20.3653 9.72101L20.3636 9.72012L20.3629 9.71976L20.3626 9.71961C20.3624 9.71953 20.3623 9.71946 20.5928 9.27576M22.3592 8.2282L21.3711 7.18873C21.1808 6.98859 21.1889 6.67211 21.389 6.48185"/>
    <path d="M12.436 9.4483C12.6806 9.32017 12.9827 9.4146 13.1109 9.65921L12.668 9.89122C13.1109 9.65921 13.111 9.65945 13.1111 9.65968L13.1114 9.66018L13.1119 9.66123L13.1132 9.66362L13.1161 9.66948L13.124 9.6855C13.1301 9.6981 13.1377 9.7145 13.1465 9.73461C13.164 9.77483 13.1863 9.82998 13.2102 9.89927C13.2581 10.0378 13.3125 10.2334 13.3485 10.4794C13.4206 10.9736 13.4168 11.6641 13.1428 12.4944C12.9204 13.1713 12.3079 13.5516 11.7139 13.7606C11.4937 13.8381 11.2609 13.8978 11.0244 13.9425L12.3897 15.0922C12.6009 15.2701 12.6279 15.5855 12.45 15.7968C12.2722 16.008 11.9567 16.035 11.7455 15.8572L9.46409 13.936C9.30343 13.8007 9.24445 13.5794 9.31646 13.3821C9.38847 13.1848 9.57612 13.0535 9.78616 13.0535C10.3288 13.0535 10.9137 12.9821 11.3819 12.8173C11.8646 12.6475 12.1148 12.4201 12.1928 12.182L12.1931 12.1811C12.4145 11.5104 12.4106 10.9777 12.3589 10.6239C12.333 10.4459 12.2945 10.3112 12.265 10.2256C12.2502 10.1828 12.2377 10.1523 12.2301 10.1349C12.2263 10.1263 12.2238 10.1209 12.2228 10.1189L12.2235 10.1202L12.2242 10.1215L12.2246 10.1223M12.2227 10.1186C12.2227 10.1187 12.2228 10.1188 12.2228 10.1189L12.2226 10.1185C12.2225 10.1183 12.2224 10.1181 12.2224 10.1181C12.2223 10.1179 12.2224 10.1181 12.2227 10.1186C12.2227 10.1186 12.2227 10.1186 12.2227 10.1186Z"/>
    <path d="M17.5213 10.7552C17.7239 10.5675 18.0402 10.5795 18.2279 10.7821L17.8612 11.122C18.2279 10.7821 18.2278 10.7819 18.2279 10.7821L18.2286 10.7828L18.2294 10.7836L18.231 10.7854L18.2349 10.7897L18.2451 10.8013C18.253 10.8103 18.2628 10.822 18.2742 10.8361C18.2968 10.8643 18.3261 10.9029 18.3579 10.9508C18.4203 11.0448 18.4988 11.1837 18.5525 11.356C18.6674 11.7249 18.6558 12.227 18.2242 12.6816C18.224 12.6818 18.2243 12.6815 18.2242 12.6816L13.0313 18.1746C13.0084 18.1989 12.9831 18.2207 12.9559 18.2399L12.668 17.8311C12.9559 18.2399 12.956 18.2398 12.9559 18.2399L12.9548 18.2407L12.9531 18.2419L12.9478 18.2456L12.93 18.2578C12.915 18.268 12.8939 18.2822 12.8675 18.2995C12.8148 18.3339 12.7405 18.381 12.6514 18.4333C12.477 18.5356 12.23 18.6675 11.971 18.7587C11.7384 18.8406 11.3796 18.9333 11.0455 18.8157C10.8567 18.7492 10.691 18.6203 10.5813 18.4271C10.4778 18.245 10.4419 18.0375 10.4419 17.8311C10.4419 17.555 10.6658 17.3311 10.9419 17.3311C11.218 17.3311 11.4419 17.555 11.4419 17.8311C11.4419 17.8445 11.4422 17.8565 11.4428 17.8671C11.4851 17.861 11.5492 17.847 11.6388 17.8154C11.8114 17.7547 11.9959 17.6585 12.1452 17.5709C12.2179 17.5282 12.2784 17.4899 12.3201 17.4626C12.3281 17.4573 12.3354 17.4525 12.342 17.4482L17.4979 11.9942L17.4987 11.9933C17.637 11.8477 17.6254 11.7421 17.5977 11.6534C17.5801 11.5968 17.5516 11.5443 17.525 11.5042C17.5122 11.485 17.5014 11.4708 17.495 11.463L17.4901 11.457C17.307 11.2543 17.3204 10.9415 17.5213 10.7552Z"/>
</svg>
