<svg width="24" height="24" viewBox="0 0 24 24" fill="none" xmlns="http://www.w3.org/2000/svg">
    <path fill-rule="evenodd" clip-rule="evenodd" d="M12.7028 0H13.2L20.4 7.2L20.4001 7.20019L21.5999 8.4V9.59981L21.6 9.6H21.5999V21.6C21.5999 22.9255 20.5254 24 19.1999 24H4.7999C3.47442 24 2.3999 22.9255 2.3999 21.6V2.4C2.3999 1.07452 3.47442 0 4.7999 0H12H12.7028ZM12 1.2H4.7999C4.13716 1.2 3.5999 1.73726 3.5999 2.4V21.6C3.5999 22.2627 4.13716 22.8 4.7999 22.8H19.1999C19.8626 22.8 20.3999 22.2627 20.3999 21.6V9.6H13.2C12.5373 9.6 12 9.06274 12 8.4V1.2ZM13.2 8.4V1.8L19.8 8.4H13.2Z" fill="#1E212E"/>
</svg>
