<svg width="24" height="24" viewBox="0 0 24 24" fill="none" xmlns="http://www.w3.org/2000/svg">
    <path d="M7.80294 13.3692L19.1724 1.99976L22.473 5.30043L11.1036 16.6698L6.56519 17.9076L7.80294 13.3692Z" stroke="#363F4D" stroke-width="1.2" stroke-linejoin="round"/>
    <path fill-rule="evenodd" clip-rule="evenodd" d="M9.9999 4.50024C9.9999 4.2241 9.77604 4.00024 9.4999 4.00024H3C1.34315 4.00024 0 5.34339 0 7.00025V21.0003C0 22.6572 1.34315 24.0003 3 24.0003H17C18.6569 24.0003 20 22.6572 20 21.0003V16.7225C20 16.4463 19.7761 16.2225 19.5 16.2225C19.2239 16.2225 19 16.4463 19 16.7225V21.0003C19 22.1049 18.1046 23.0003 17 23.0003H3C1.89543 23.0003 1 22.1049 1 21.0003V7.00025C1 5.89568 1.89543 5.00024 3 5.00024H9.4999C9.77604 5.00024 9.9999 4.77639 9.9999 4.50024Z" fill="#363F4D"/>
</svg>
