<svg width="24" height="24" viewBox="0 0 24 24" xmlns="http://www.w3.org/2000/svg">
    <path d="M18.7481 1.57551C18.9824 1.34119 19.3623 1.34119 19.5966 1.57551L22.8973 4.87618C23.1316 5.1105 23.1316 5.4904 22.8973 5.72471L11.5279 17.0941C11.454 17.168 11.3622 17.2213 11.2615 17.2487L6.72306 18.4865C6.51533 18.5431 6.29317 18.4841 6.14092 18.3319C5.98867 18.1796 5.92968 17.9575 5.98633 17.7498L7.22408 13.2113C7.25156 13.1106 7.30485 13.0188 7.37868 12.9449L18.7481 1.57551ZM19.1724 2.8483L8.33988 13.6808L7.42032 17.0525L10.792 16.1329L21.6245 5.30045L19.1724 2.8483Z"/>
    <path d="M9.9999 4.50012C9.9999 4.22398 9.77604 4.00012 9.4999 4.00012H3C1.34315 4.00012 0 5.34327 0 7.00013V21.0002C0 22.6571 1.34315 24.0002 3 24.0002H17C18.6569 24.0002 20 22.6571 20 21.0002V16.7224C20 16.4462 19.7761 16.2224 19.5 16.2224C19.2239 16.2224 19 16.4462 19 16.7224V21.0002C19 22.1048 18.1046 23.0002 17 23.0002H3C1.89543 23.0002 1 22.1048 1 21.0002V7.00013C1 5.89556 1.89543 5.00012 3 5.00012H9.4999C9.77604 5.00012 9.9999 4.77626 9.9999 4.50012Z"/>
</svg>
