<svg width="24" height="24" viewBox="0 0 24 24" xmlns="http://www.w3.org/2000/svg">
    <path d="M20.8687 3.1313C21.103 3.36562 21.103 3.74552 20.8687 3.97983L3.97983 20.8687C3.74552 21.103 3.36562 21.103 3.1313 20.8687C2.89699 20.6344 2.89699 20.2545 3.1313 20.0202L20.0202 3.1313C20.2545 2.89699 20.6344 2.89699 20.8687 3.1313Z"/>
    <path fill-rule="evenodd" clip-rule="evenodd" d="M3.55556 22.8C4.85649 22.8 5.91111 21.7454 5.91111 20.4445C5.91111 19.1435 4.85649 18.0889 3.55556 18.0889C2.25462 18.0889 1.2 19.1435 1.2 20.4445C1.2 21.7454 2.25462 22.8 3.55556 22.8ZM3.55556 24C5.51923 24 7.11111 22.4082 7.11111 20.4445C7.11111 18.4808 5.51923 16.8889 3.55556 16.8889C1.59188 16.8889 0 18.4808 0 20.4445C0 22.4082 1.59188 24 3.55556 24Z"/>
    <path fill-rule="evenodd" clip-rule="evenodd" d="M20.4445 5.91111C21.7454 5.91111 22.8 4.85649 22.8 3.55556C22.8 2.25462 21.7454 1.2 20.4445 1.2C19.1435 1.2 18.0889 2.25462 18.0889 3.55556C18.0889 4.85649 19.1435 5.91111 20.4445 5.91111ZM20.4445 7.11111C22.4082 7.11111 24 5.51923 24 3.55556C24 1.59188 22.4082 0 20.4445 0C18.4808 0 16.8889 1.59188 16.8889 3.55556C16.8889 5.51923 18.4808 7.11111 20.4445 7.11111Z"/>
</svg>
