<svg width="25" height="24" viewBox="0 0 25 24" xmlns="http://www.w3.org/2000/svg">
    <path d="M13.7078 10.2111L17.6149 11.5047L24.2066 18.1047L21.607 20.7076L15.0154 14.1077L13.7078 10.2111ZM15.2921 11.789L15.8888 13.5671L21.607 19.2925L22.7933 18.1047L17.0751 12.3794L15.2921 11.789Z"/>
    <path d="M19.7536 4.50908C19.4088 4.63278 19.0437 4.73077 18.6579 4.73077C18.2427 4.73077 17.8587 4.58383 17.5533 4.43787C17.3975 4.36341 17.2492 4.28264 17.1198 4.21179L17.1037 4.20298C16.9764 4.1333 16.8721 4.07619 16.7778 4.03114C16.7667 4.02581 16.756 4.02085 16.746 4.01624C16.7405 4.07181 16.7368 4.14235 16.7368 4.23077C16.7368 5.60367 16.0679 7.00061 15.0042 7.72158C14.4622 8.08895 13.8106 8.28336 13.1055 8.18778C12.4034 8.0926 11.7016 7.71738 11.0382 7.04292C10.3641 6.35752 9.9561 5.51606 9.68292 4.84153C9.61741 4.67978 9.55677 4.51987 9.50228 4.37343C9.49838 4.38629 9.49446 4.39935 9.49049 4.41262C9.23025 5.28196 8.85584 6.80394 8.24867 9.27323C7.01997 14.2702 5.15894 16.8396 3.53916 18.1571C2.73059 18.8148 1.99253 19.1516 1.44366 19.3233C1.16984 19.409 0.94439 19.4532 0.782199 19.4759C0.701114 19.4873 0.635835 19.4933 0.588203 19.4965C0.564386 19.4981 0.544974 19.499 0.530195 19.4994L0.511527 19.4999L0.50485 19.5L0.502185 19.5L0.501022 19.5C0.500488 19.5 0.499972 19.5 0.499972 19C0.499972 18.5 0.499493 18.5 0.499033 18.5L0.498202 18.5L0.49686 18.5L0.495454 18.5C0.495081 18.5 0.495831 18.5 0.497677 18.5C0.50137 18.4998 0.509443 18.4995 0.521681 18.4987C0.546161 18.4971 0.587276 18.4935 0.643321 18.4856C0.755389 18.4699 0.927146 18.4371 1.1451 18.369C1.57978 18.233 2.20356 17.9544 2.90815 17.3813C4.31469 16.2373 6.08523 13.8837 7.27759 9.03446L7.28428 9.00727C7.88377 6.56918 8.26411 5.02241 8.53249 4.12585C8.6631 3.68951 8.78246 3.35172 8.90955 3.1409C8.96422 3.05022 9.08305 2.87189 9.29889 2.79656C9.59407 2.69353 9.82615 2.84601 9.93539 2.95708C10.0337 3.05701 10.1004 3.18201 10.1448 3.27425C10.1938 3.37629 10.2413 3.49456 10.2873 3.6151C10.3208 3.70311 10.354 3.79324 10.3885 3.88681C10.454 4.06451 10.5241 4.25461 10.6098 4.46616C10.8662 5.09932 11.2148 5.79633 11.7512 6.3417C12.2983 6.89801 12.8071 7.13817 13.2398 7.19684C13.6697 7.25511 14.0772 7.14182 14.4431 6.89381C15.1953 6.384 15.7368 5.3194 15.7368 4.23077C15.7368 3.99158 15.7569 3.7742 15.8121 3.58931C15.8679 3.40271 15.9751 3.20048 16.1831 3.07264C16.3924 2.94407 16.6126 2.94671 16.774 2.97639C16.9318 3.00538 17.0832 3.06875 17.209 3.12886C17.3292 3.18629 17.4563 3.25595 17.5748 3.32081L17.5999 3.3346C17.7306 3.40611 17.8566 3.47448 17.9845 3.53559C18.2465 3.66079 18.4677 3.73077 18.6579 3.73077C18.8773 3.73077 19.1174 3.67492 19.4158 3.56784C19.6151 3.49634 19.813 3.4129 20.0365 3.31871C20.1605 3.26645 20.2923 3.21089 20.4366 3.15222C21.2205 2.83342 22.1972 2.5 23.5 2.5V3.5C22.3817 3.5 21.5426 3.78197 20.8133 4.07855C20.6972 4.12577 20.5787 4.17565 20.4601 4.22558C20.2188 4.32713 19.977 4.42891 19.7536 4.50908ZM9.77858 3.63872C9.77864 3.63907 9.7763 3.64268 9.7714 3.64847C9.77609 3.64125 9.77853 3.63836 9.77858 3.63872Z"/>
</svg>
