<svg width="24" height="24" viewBox="0 0 24 24" xmlns="http://www.w3.org/2000/svg">
    <path fill-rule="evenodd" clip-rule="evenodd" d="M18.0001 4.8001H6.0001C5.33736 4.8001 4.8001 5.33736 4.8001 6.0001V18.0001C4.8001 18.6628 5.33736 19.2001 6.0001 19.2001H18.0001C18.6628 19.2001 19.2001 18.6628 19.2001 18.0001V6.0001C19.2001 5.33736 18.6628 4.8001 18.0001 4.8001ZM6.0001 3.6001C4.67461 3.6001 3.6001 4.67462 3.6001 6.0001V18.0001C3.6001 19.3256 4.67462 20.4001 6.0001 20.4001H18.0001C19.3256 20.4001 20.4001 19.3256 20.4001 18.0001V6.0001C20.4001 4.67461 19.3256 3.6001 18.0001 3.6001H6.0001Z"/>
    <path d="M3.6001 6.0001C3.6001 4.67462 4.67461 3.6001 6.0001 3.6001H13.2001V20.4001H6.0001C4.67461 20.4001 3.6001 19.3256 3.6001 18.0001V6.0001Z"/>
</svg>
