<svg width="24" height="24" viewBox="0 0 24 24" fill="none" xmlns="http://www.w3.org/2000/svg">
    <path fill-rule="evenodd" clip-rule="evenodd" d="M3.6001 5.6998C3.6001 5.20275 4.00304 4.7998 4.5001 4.7998H19.5001C19.9972 4.7998 20.4001 5.20275 20.4001 5.6998C20.4001 6.19686 19.9972 6.5998 19.5001 6.5998H4.5001C4.00304 6.5998 3.6001 6.19686 3.6001 5.6998Z" fill="black"/>
    <path fill-rule="evenodd" clip-rule="evenodd" d="M3.6001 11.7C3.6001 11.203 4.00304 10.8 4.5001 10.8H19.5001C19.9972 10.8 20.4001 11.203 20.4001 11.7C20.4001 12.1971 19.9972 12.6 19.5001 12.6H4.5001C4.00304 12.6 3.6001 12.1971 3.6001 11.7Z" fill="black"/>
    <path fill-rule="evenodd" clip-rule="evenodd" d="M3.6001 17.7C3.6001 17.203 4.00304 16.8 4.5001 16.8H19.5001C19.9972 16.8 20.4001 17.203 20.4001 17.7C20.4001 18.1971 19.9972 18.6 19.5001 18.6H4.5001C4.00304 18.6 3.6001 18.1971 3.6001 17.7Z" fill="black"/>
</svg>
