<svg width="24" height="24" viewBox="0 0 24 24" xmlns="http://www.w3.org/2000/svg">
    <path d="M4.2223 11.4445C4.52913 11.4445 4.77786 11.6932 4.77786 12V21.4445H9.77786V15.8889C9.77786 15.5821 10.0266 15.3333 10.3334 15.3333H13.6667C13.9736 15.3333 14.2223 15.5821 14.2223 15.8889V21.4445H19.2223V12C19.2223 11.6932 19.471 11.4445 19.7779 11.4445C20.0847 11.4445 20.3334 11.6932 20.3334 12V22C20.3334 22.3068 20.0847 22.5556 19.7779 22.5556H13.6667C13.3599 22.5556 13.1112 22.3068 13.1112 22V16.4445H10.889V22C10.889 22.3068 10.6402 22.5556 10.3334 22.5556H4.2223C3.91548 22.5556 3.66675 22.3068 3.66675 22V12C3.66675 11.6932 3.91548 11.4445 4.2223 11.4445Z"/>
    <path d="M11.6308 1.58479C11.8413 1.39768 12.1585 1.39768 12.369 1.58479L22.369 10.4737C22.5983 10.6775 22.619 11.0287 22.4151 11.258C22.2113 11.4873 21.8601 11.508 21.6308 11.3041L11.9999 2.74332L2.36899 11.3041C2.13966 11.508 1.78851 11.4873 1.58467 11.258C1.38083 11.0287 1.40148 10.6775 1.63081 10.4737L11.6308 1.58479Z"/>
</svg>
