<svg width="24" height="24" viewBox="0 0 24 24" xmlns="http://www.w3.org/2000/svg">
    <path fill-rule="evenodd" clip-rule="evenodd" d="M11.4 2.21807C6.26703 2.52808 2.2 6.78909 2.2 12C2.2 17.2109 6.26703 21.4719 11.4 21.7819V2.21807ZM12 1H12.6V1.01609C18.3961 1.32765 23 6.12618 23 12C23 17.8738 18.3961 22.6723 12.6 22.9839V23H12H11.4V22.9839C5.60389 22.6723 1 17.8738 1 12C1 6.12618 5.60389 1.32765 11.4 1.01609V1H12ZM19.7 18.0628C20.4562 17.1038 21.037 16.0001 21.3942 14.8H12.6V18H19.7V18.0628ZM18.6484 19.2H12.6V21.7819C14.929 21.6413 17.0386 20.6872 18.6484 19.2ZM12.6 13.6H21.67C21.7555 13.0793 21.8 12.5449 21.8 12C21.8 11.4551 21.7555 10.9207 21.67 10.4H12.6V13.6ZM12.6 9.2H21.3942C21.037 7.99994 20.4562 6.89621 19.7 5.93716V6H12.6V9.2ZM12.6 2.21807C14.929 2.35873 17.0386 3.31283 18.6484 4.8H12.6V2.21807Z"/>
</svg>
