<svg width="24" height="24" viewBox="0 0 24 24" xmlns="http://www.w3.org/2000/svg">
    <path fill-rule="evenodd" clip-rule="evenodd" d="M12 21.8C17.4124 21.8 21.8 17.4124 21.8 12C21.8 6.58761 17.4124 2.2 12 2.2C6.58761 2.2 2.2 6.58761 2.2 12C2.2 17.4124 6.58761 21.8 12 21.8ZM12 23C18.0751 23 23 18.0751 23 12C23 5.92487 18.0751 1 12 1C5.92487 1 1 5.92487 1 12C1 18.0751 5.92487 23 12 23Z"/>
    <path d="M11.0696 17V9.90531H12.9217V17H11.0696ZM12 8.99076C11.7246 8.99076 11.4884 8.89376 11.2913 8.69977C11.0971 8.50269 11 8.26713 11 7.99307C11 7.72209 11.0971 7.48961 11.2913 7.29561C11.4884 7.09854 11.7246 7 12 7C12.2754 7 12.5101 7.09854 12.7043 7.29561C12.9014 7.48961 13 7.72209 13 7.99307C13 8.26713 12.9014 8.50269 12.7043 8.69977C12.5101 8.89376 12.2754 8.99076 12 8.99076Z"/>
</svg>
