<svg width="24" height="24" viewBox="0 0 24 24" fill="none" xmlns="http://www.w3.org/2000/svg">
    <circle cx="12" cy="12" r="10.4" stroke="black" fill="none" stroke-width="1.2"/>
    <path d="M11.0696 17V9.90531H12.9217V17H11.0696ZM12 8.99076C11.7246 8.99076 11.4884 8.89376 11.2913 8.69977C11.0971 8.50269 11 8.26713 11 7.99307C11 7.72209 11.0971 7.48961 11.2913 7.29561C11.4884 7.09854 11.7246 7 12 7C12.2754 7 12.5101 7.09854 12.7043 7.29561C12.9014 7.48961 13 7.72209 13 7.99307C13 8.26713 12.9014 8.50269 12.7043 8.69977C12.5101 8.89376 12.2754 8.99076 12 8.99076Z" fill="black"/>
</svg>
