<svg width="24" height="24" viewBox="0 0 24 24" fill="none" xmlns="http://www.w3.org/2000/svg">
    <rect width="6" height="2" rx="0.5" transform="matrix(1 0 0 -1 3 11)" fill="#1E212E"/>
    <rect width="3" height="2" rx="0.5" transform="matrix(1 0 0 -1 3 15)" fill="#1E212E"/>
    <rect width="3" height="2" rx="0.5" transform="matrix(1 0 0 -1 8 15)" fill="#1E212E"/>
    <mask id="path-4-inside-1_671_4893" fill="white">
        <rect width="2" height="2" rx="0.5" transform="matrix(1 0 0 -1 11 11)"/>
    </mask>
    <rect width="2" height="2" rx="0.5" transform="matrix(1 0 0 -1 11 11)" stroke="#1E212E" stroke-width="2" mask="url(#path-4-inside-1_671_4893)"/>
    <rect width="8" height="2" rx="0.5" transform="matrix(1 0 0 -1 13 15)" fill="#1E212E"/>
    <mask id="path-6-inside-2_671_4893" fill="white">
        <rect width="2" height="2" rx="0.5" transform="matrix(1 0 0 -1 15 11)"/>
    </mask>
    <rect width="2" height="2" rx="0.5" transform="matrix(1 0 0 -1 15 11)" stroke="#1E212E" stroke-width="2" mask="url(#path-6-inside-2_671_4893)"/>
    <mask id="path-7-inside-3_671_4893" fill="white">
        <rect width="2" height="2" rx="0.5" transform="matrix(1 0 0 -1 19 11)"/>
    </mask>
    <rect width="2" height="2" rx="0.5" transform="matrix(1 0 0 -1 19 11)" stroke="#1E212E" stroke-width="2" mask="url(#path-7-inside-3_671_4893)"/>
    <rect x="0.5" y="-0.5" width="23" height="13" rx="1.5" transform="matrix(1 0 0 -1 0 18)" stroke="#1E212E"/>
</svg>
