<svg width="24" height="24" viewBox="0 0 24 24" xmlns="http://www.w3.org/2000/svg">
    <path d="M3 10.5C3 10.7761 3.22386 11 3.5 11H8.5C8.77614 11 9 10.7761 9 10.5V9.5C9 9.22386 8.77614 9 8.5 9H3.5C3.22386 9 3 9.22386 3 9.5V10.5Z"/>
    <path d="M3 14.5C3 14.7761 3.22386 15 3.5 15H5.5C5.77614 15 6 14.7761 6 14.5V13.5C6 13.2239 5.77614 13 5.5 13H3.5C3.22386 13 3 13.2239 3 13.5V14.5Z"/>
    <path d="M8 14.5C8 14.7761 8.22386 15 8.5 15H10.5C10.7761 15 11 14.7761 11 14.5V13.5C11 13.2239 10.7761 13 10.5 13H8.5C8.22386 13 8 13.2239 8 13.5V14.5Z"/>
    <path d="M11.5 11C11.2239 11 11 10.7761 11 10.5V9.5C11 9.22386 11.2239 9 11.5 9H12.5C12.7761 9 13 9.22386 13 9.5V10.5C13 10.7761 12.7761 11 12.5 11H11.5Z"/>
    <path d="M13 14.5C13 14.7761 13.2239 15 13.5 15H20.5C20.7761 15 21 14.7761 21 14.5V13.5C21 13.2239 20.7761 13 20.5 13H13.5C13.2239 13 13 13.2239 13 13.5V14.5Z"/>
    <path d="M15.5 11C15.2239 11 15 10.7761 15 10.5V9.5C15 9.22386 15.2239 9 15.5 9H16.5C16.7761 9 17 9.22386 17 9.5V10.5C17 10.7761 16.7761 11 16.5 11H15.5Z"/>
    <path d="M19.5 11C19.2239 11 19 10.7761 19 10.5V9.5C19 9.22386 19.2239 9 19.5 9H20.5C20.7761 9 21 9.22386 21 9.5V10.5C21 10.7761 20.7761 11 20.5 11H19.5Z"/>
    <path fill-rule="evenodd" clip-rule="evenodd" d="M22 18H2C1.44772 18 1 17.5523 1 17V7C1 6.44771 1.44772 6 2 6H22C22.5523 6 23 6.44771 23 7V17C23 17.5523 22.5523 18 22 18ZM2 19C0.895431 19 0 18.1046 0 17V7C0 5.89543 0.89543 5 2 5H22C23.1046 5 24 5.89543 24 7V17C24 18.1046 23.1046 19 22 19H2Z"/>
</svg>
