<svg width="24" height="24" viewBox="0 0 24 24" xmlns="http://www.w3.org/2000/svg">
    <path d="M3 9.12061C2.72386 9.12061 2.5 9.34446 2.5 9.62061V20.1358C2.5 20.4119 2.27614 20.6358 2 20.6358C1.72386 20.6358 1.5 20.4119 1.5 20.1358V9.62061C1.5 8.79218 2.17157 8.12061 3 8.12061H22C22.2761 8.12061 22.5 8.34446 22.5 8.62061C22.5 8.89675 22.2761 9.12061 22 9.12061H3Z"/>
    <path d="M6.71655 12.4996C6.71655 11.6712 7.38812 10.9996 8.21655 10.9996H12.3035C13.1319 10.9996 13.8035 11.6712 13.8035 12.4996V14.8784H6.71655V12.4996ZM8.21655 11.9996C7.94041 11.9996 7.71655 12.2235 7.71655 12.4996V13.8784H12.8035V12.4996C12.8035 12.2235 12.5797 11.9996 12.3035 11.9996H8.21655Z"/>
    <path d="M1.5 14.3788C1.5 14.1026 1.72386 13.8788 2 13.8788H22C22.2761 13.8788 22.5 14.1026 22.5 14.3788C22.5 14.6549 22.2761 14.8788 22 14.8788H2C1.72386 14.8788 1.5 14.6549 1.5 14.3788Z"/>
    <path d="M15.9133 5.24231C16.1895 5.24231 16.4133 5.46617 16.4133 5.74231V20.1362C16.4133 20.4124 16.1895 20.6362 15.9133 20.6362C15.6372 20.6362 15.4133 20.4124 15.4133 20.1362V5.74231C15.4133 5.46617 15.6372 5.24231 15.9133 5.24231Z"/>
    <path d="M14.1262 3.36328L15.9135 5.05383L17.7007 3.36328H14.1262ZM12.9827 3.65815C12.4899 3.19205 12.8198 2.36328 13.4981 2.36328H18.3288C19.0071 2.36328 19.337 3.19205 18.8442 3.65815L16.4288 5.94282C16.1397 6.21633 15.6872 6.21633 15.3981 5.94282L12.9827 3.65815Z"/>
</svg>
