<svg width="24" height="24" viewBox="0 0 24 24" xmlns="http://www.w3.org/2000/svg">
    <path d="M22.4476 12.6471C22.4476 6.87731 17.7703 2.2 12.0006 2.2C6.23082 2.2 1.55352 6.87731 1.55352 12.6471C1.55352 14.6215 2.10123 16.468 3.05301 18.0429C3.29826 18.4487 3.02108 19 2.54694 19C2.35364 19 2.17257 18.9029 2.07134 18.7382C0.981845 16.966 0.353516 14.8799 0.353516 12.6471C0.353516 6.21457 5.56808 1 12.0006 1C18.4331 1 23.6476 6.21457 23.6476 12.6471C23.6476 14.8799 23.0193 16.966 21.9298 18.7382C21.8286 18.9029 21.6475 19 21.4542 19C20.9801 19 20.7029 18.4487 20.9481 18.0429C21.8999 16.468 22.4476 14.6215 22.4476 12.6471Z"/>
    <path d="M16.2362 12.6474C16.2362 14.9865 14.34 16.8827 12.0009 16.8827C9.66183 16.8827 7.76562 14.9865 7.76562 12.6474C7.76562 10.3083 9.66183 8.41211 12.0009 8.41211C14.34 8.41211 16.2362 10.3083 16.2362 12.6474Z"/>
    <path d="M6.70404 7.35248C6.99694 7.05959 7.47181 7.05959 7.76471 7.35248L10.4118 9.99954C10.7047 10.2924 10.7047 10.7673 10.4118 11.0602C10.1189 11.3531 9.644 11.3531 9.3511 11.0602L6.70404 8.41314C6.41115 8.12025 6.41115 7.64538 6.70404 7.35248Z"/>
</svg>
