<svg width="24" height="24" viewBox="0 0 24 24" xmlns="http://www.w3.org/2000/svg">
    <path fill-rule="evenodd" clip-rule="evenodd" d="M12 18C15.3137 18 18 15.3137 18 12C18 8.68629 15.3137 6 12 6C8.68629 6 6 8.68629 6 12C6 15.3137 8.68629 18 12 18ZM12 19C15.866 19 19 15.866 19 12C19 8.13401 15.866 5 12 5C8.13401 5 5 8.13401 5 12C5 15.866 8.13401 19 12 19Z"/>
    <path d="M22.983 12.6171L20.4868 12.4791C20.4956 12.3207 20.5 12.161 20.5 12C20.5 11.839 20.4956 11.6793 20.4868 11.5209L22.983 11.3829C22.9943 11.5872 23 11.7929 23 12C23 12.2071 22.9943 12.4128 22.983 12.6171ZM20.2022 4.67016L18.3386 6.33665C18.1263 6.0992 17.9008 5.87371 17.6633 5.66136L19.3298 3.79782C19.6366 4.07213 19.9279 4.36341 20.2022 4.67016ZM12.6171 1.01702L12.4791 3.5132C12.3207 3.50445 12.161 3.5 12 3.5C11.839 3.5 11.6793 3.50445 11.5209 3.5132L11.3829 1.01702C11.5872 1.00572 11.7929 1 12 1C12.2071 1 12.4128 1.00572 12.6171 1.01702ZM4.67016 3.79782L6.33665 5.66136C6.0992 5.87371 5.87371 6.0992 5.66136 6.33666L3.79782 4.67016C4.07213 4.36341 4.36341 4.07214 4.67016 3.79782ZM1.01702 11.3829C1.00572 11.5872 1 11.7929 1 12C1 12.2071 1.00572 12.4128 1.01702 12.6171L3.5132 12.4791C3.50445 12.3207 3.5 12.161 3.5 12C3.5 11.839 3.50445 11.6793 3.5132 11.5209L1.01702 11.3829ZM3.79782 19.3298L5.66136 17.6633C5.87371 17.9008 6.0992 18.1263 6.33666 18.3386L4.67016 20.2022C4.36341 19.9279 4.07214 19.6366 3.79782 19.3298ZM11.3829 22.983L11.5209 20.4868C11.6793 20.4956 11.839 20.5 12 20.5C12.161 20.5 12.3207 20.4956 12.4791 20.4868L12.6171 22.983C12.4128 22.9943 12.2071 23 12 23C11.7929 23 11.5872 22.9943 11.3829 22.983ZM19.3298 20.2022L17.6633 18.3386C17.9008 18.1263 18.1263 17.9008 18.3386 17.6633L20.2022 19.3298C19.9279 19.6366 19.6366 19.9279 19.3298 20.2022Z"/>
</svg>
