<svg width="24" height="24" viewBox="0 0 24 24" xmlns="http://www.w3.org/2000/svg">
    <path d="M5.68734 10.9665C7.76131 8.85668 11.1385 8.88345 13.2061 10.9868L12.3729 11.8344C10.759 10.1926 8.12791 10.179 6.52054 11.8142L3.56217 14.8237C2.05499 16.357 2.055 18.8429 3.56218 20.3762C5.06936 21.9094 7.51298 21.9094 9.02016 20.3762L10.7981 18.5674C11.0282 18.3334 11.4012 18.3334 11.6313 18.5674C11.8614 18.8015 11.8614 19.181 11.6313 19.4151L9.85337 21.2238C7.88602 23.2252 4.69632 23.2252 2.72897 21.2238C0.761623 19.2224 0.761618 15.9775 2.72897 13.9761L5.68734 10.9665Z"/>
    <path d="M17.526 13.8334C15.4553 15.94 12.0979 15.94 10.0272 13.8334L9.76504 13.5667C9.53496 13.3327 9.53496 12.9532 9.76504 12.7191C9.99512 12.485 10.3682 12.485 10.5982 12.7191L10.8604 12.9858C12.471 14.6242 15.0822 14.6242 16.6928 12.9858L20.4376 9.1762C21.9448 7.64294 21.9448 5.15703 20.4376 3.62377C18.9304 2.09051 16.4868 2.09051 14.9796 3.62377L12.7914 5.84988C12.5613 6.08394 12.1882 6.08394 11.9582 5.84988C11.7281 5.61581 11.7281 5.23632 11.9582 5.00225L14.1464 2.77614C16.1138 0.77475 19.3035 0.774752 21.2708 2.77614C23.2382 4.77754 23.2382 8.02243 21.2708 10.0238L17.526 13.8334Z"/>
</svg>
