<svg width="24" height="24" viewBox="0 0 24 24" xmlns="http://www.w3.org/2000/svg">
    <path d="M1.19985 15C1.53122 15 1.79985 15.2686 1.79985 15.6V22.2H22.1999V15.6C22.1999 15.2686 22.4685 15 22.7999 15C23.1312 15 23.3999 15.2686 23.3999 15.6V22.8C23.3999 23.1314 23.1312 23.4 22.7999 23.4H1.19985C0.868483 23.4 0.599854 23.1314 0.599854 22.8V15.6C0.599854 15.2686 0.868483 15 1.19985 15Z"/>
    <path d="M11.9998 0.450195C12.414 0.450195 12.7498 0.785982 12.7498 1.2002L12.7498 16.8002C12.7498 17.2144 12.414 17.5502 11.9998 17.5502C11.5855 17.5502 11.2498 17.2144 11.2498 16.8002L11.2498 1.2002C11.2498 0.785982 11.5855 0.450195 11.9998 0.450195Z"/>
    <path d="M5.46943 11.4697C5.76232 11.1768 6.23719 11.1768 6.53009 11.4697L11.9998 16.9393L17.4694 11.4697C17.7623 11.1768 18.2372 11.1768 18.5301 11.4697C18.823 11.7626 18.823 12.2374 18.5301 12.5303L12.5301 18.5303C12.3894 18.671 12.1987 18.75 11.9998 18.75C11.8008 18.75 11.6101 18.671 11.4694 18.5303L5.46943 12.5303C5.17653 12.2374 5.17653 11.7626 5.46943 11.4697Z"/>
</svg>
