<svg width="24" height="24" viewBox="0 0 24 24" xmlns="http://www.w3.org/2000/svg">
    <path d="M12 2.74976C9.10051 2.74976 6.75 5.10026 6.75 7.99976V11.9998H5.25V7.99976C5.25 4.27183 8.27208 1.24976 12 1.24976C15.7279 1.24976 18.75 4.27183 18.75 7.99976V11.9998H17.25V7.99976C17.25 5.10026 14.8995 2.74976 12 2.74976Z" />
    <path fill-rule="evenodd" clip-rule="evenodd" d="M3.5 10.0002C3.22386 10.0002 3 10.2241 3 10.5002V21.5002C3 21.7764 3.22386 22.0002 3.5 22.0002H20.5C20.7761 22.0002 21 21.7764 21 21.5002V10.5002C21 10.2241 20.7761 10.0002 20.5 10.0002H3.5ZM11.0001 13.0004V18.0004H13.0001V13.0004H11.0001Z"/>
</svg>
