<svg width="24" height="24" viewBox="0 0 24 24" fill="none" xmlns="http://www.w3.org/2000/svg">
    <path d="M12.3994 6.22919V3.44885L17.3445 0.830503V3.61084L12.3994 6.22919Z" stroke="#1E212E"/>
    <mask id="path-2-inside-1_658_6699" fill="white">
        <path fill-rule="evenodd" clip-rule="evenodd" d="M7.20589 7.44971C3.77847 7.44971 1 10.2282 1 13.6556V17.7941C1 21.2215 3.77848 24 7.2059 24H16.931C19.8746 24 22.3396 21.9505 22.9768 19.2006C23.1065 18.6407 22.6426 18.1535 22.0679 18.1535H18.3537C17.5252 18.1535 16.8537 17.4819 16.8537 16.6535V14.6108C16.8537 13.7824 17.5252 13.1108 18.3537 13.1108H22.0226C22.609 13.1108 23.0764 12.6041 22.9239 12.0378C22.2122 9.39488 19.7987 7.44971 16.931 7.44971H7.20589Z"/>
    </mask>
    <path d="M22.9239 12.0378L24.0826 11.7258L22.9239 12.0378ZM22.9768 19.2006L24.1458 19.4715L22.9768 19.2006ZM2.2 13.6556C2.2 10.8909 4.44121 8.64971 7.20589 8.64971V6.24971C3.11573 6.24971 -0.2 9.56543 -0.2 13.6556H2.2ZM2.2 17.7941V13.6556H-0.2V17.7941H2.2ZM7.2059 22.8C4.44122 22.8 2.2 20.5588 2.2 17.7941H-0.2C-0.2 21.8843 3.11574 25.2 7.2059 25.2V22.8ZM16.931 22.8H7.2059V25.2H16.931V22.8ZM21.8078 18.9297C21.2938 21.1478 19.3039 22.8 16.931 22.8V25.2C20.4454 25.2 23.3854 22.7532 24.1458 19.4715L21.8078 18.9297ZM22.0679 16.9535H18.3537V19.3535H22.0679V16.9535ZM18.3537 16.9535C18.188 16.9535 18.0537 16.8192 18.0537 16.6535H15.6537C15.6537 18.1446 16.8625 19.3535 18.3537 19.3535V16.9535ZM18.0537 16.6535V14.6108H15.6537V16.6535H18.0537ZM18.0537 14.6108C18.0537 14.4452 18.188 14.3108 18.3537 14.3108V11.9108C16.8625 11.9108 15.6537 13.1197 15.6537 14.6108H18.0537ZM18.3537 14.3108H22.0226V11.9108H18.3537V14.3108ZM16.931 8.64971C19.2425 8.64971 21.191 10.2175 21.7652 12.3498L24.0826 11.7258C23.2334 8.57224 20.3549 6.24971 16.931 6.24971V8.64971ZM7.20589 8.64971H16.931V6.24971H7.20589V8.64971ZM22.0226 14.3108C23.2371 14.3108 24.4806 13.2036 24.0826 11.7258L21.7652 12.3498C21.7503 12.2947 21.7477 12.2257 21.7652 12.1555C21.7819 12.0882 21.8126 12.0365 21.8434 12.0009C21.9021 11.9332 21.9705 11.9108 22.0226 11.9108V14.3108ZM24.1458 19.4715C24.4829 18.0168 23.2614 16.9535 22.0679 16.9535V19.3535C22.0168 19.3535 21.9502 19.3321 21.8922 19.2672C21.8617 19.2331 21.8311 19.1837 21.8133 19.1191C21.7948 19.0519 21.795 18.9848 21.8078 18.9297L24.1458 19.4715Z" fill="#1E212E" mask="url(#path-2-inside-1_658_6699)"/>
</svg>
