<svg width="24" height="24" viewBox="0 0 24 24" xmlns="http://www.w3.org/2000/svg">
    <path fill-rule="evenodd" clip-rule="evenodd" d="M12.8994 3.74992V5.39873L16.8445 3.30986V1.66105L12.8994 3.74992ZM12.1195 3.03132C11.9841 3.10302 11.8994 3.24371 11.8994 3.39695V6.37254C11.8994 6.68432 12.2312 6.88407 12.5067 6.73817L17.6244 4.02846C17.7598 3.95675 17.8445 3.81607 17.8445 3.66283V0.687243C17.8445 0.375459 17.5128 0.175712 17.2372 0.321607L12.1195 3.03132Z"/>
    <path d="M7.20589 8.64971C4.44121 8.64971 2.2 10.8909 2.2 13.6556V17.7941C2.2 20.5588 4.44122 22.8 7.2059 22.8H16.931C19.1501 22.8 21.0343 21.355 21.6896 19.3535H18.3537C16.8625 19.3535 15.6537 18.1446 15.6537 16.6535V14.6108C15.6537 13.1197 16.8625 11.9108 18.3537 11.9108H21.6248C20.9165 10.0058 19.0808 8.64971 16.931 8.64971H7.20589ZM1 13.6556C1 10.2282 3.77847 7.44971 7.20589 7.44971H16.931C19.7987 7.44971 22.2122 9.39488 22.9239 12.0378C23.0764 12.6041 22.609 13.1108 22.0226 13.1108H18.3537C17.5252 13.1108 16.8537 13.7824 16.8537 14.6108V16.6535C16.8537 17.4819 17.5252 18.1535 18.3537 18.1535H22.0679C22.6426 18.1535 23.1065 18.6407 22.9768 19.2006C22.3396 21.9505 19.8746 24 16.931 24H7.2059C3.77848 24 1 21.2215 1 17.7941V13.6556Z"/>
</svg>
