<svg width="24" height="24" viewBox="0 0 24 24" xmlns="http://www.w3.org/2000/svg">
    <path fill-rule="evenodd" clip-rule="evenodd" d="M14 1H4C2.34315 1 1 2.34315 1 4V14C1 15.6569 2.34315 17 4 17H14C15.6569 17 17 15.6569 17 14V4C17 2.34315 15.6569 1 14 1ZM4 0C1.79086 0 0 1.79086 0 4V14C0 16.2091 1.79086 18 4 18H14C16.2091 18 18 16.2091 18 14V4C18 1.79086 16.2091 0 14 0H4Z"/>
    <path fill-rule="evenodd" clip-rule="evenodd" d="M13.5 14.25C13.9142 14.25 14.25 13.9142 14.25 13.5C14.25 13.0858 13.9142 12.75 13.5 12.75C13.0858 12.75 12.75 13.0858 12.75 13.5C12.75 13.9142 13.0858 14.25 13.5 14.25ZM13.5 15C14.3284 15 15 14.3284 15 13.5C15 12.6716 14.3284 12 13.5 12C12.6716 12 12 12.6716 12 13.5C12 14.3284 12.6716 15 13.5 15Z"/>
    <path fill-rule="evenodd" clip-rule="evenodd" d="M19.5 20.25C19.9142 20.25 20.25 19.9142 20.25 19.5C20.25 19.0858 19.9142 18.75 19.5 18.75C19.0858 18.75 18.75 19.0858 18.75 19.5C18.75 19.9142 19.0858 20.25 19.5 20.25ZM19.5 21C20.3284 21 21 20.3284 21 19.5C21 18.6716 20.3284 18 19.5 18C18.6716 18 18 18.6716 18 19.5C18 20.3284 18.6716 21 19.5 21Z"/>
    <path d="M6 20C6 22.2091 7.79086 24 10 24H20C22.2091 24 24 22.2091 24 20V10C24 7.79086 22.2091 6 20 6V7C21.6569 7 23 8.34315 23 10V20C23 21.6569 21.6569 23 20 23H10C8.34315 23 7 21.6569 7 20H6Z"/>
</svg>
