<svg width="24" height="24" viewBox="0 0 24 24" fill="none" xmlns="http://www.w3.org/2000/svg">
    <path d="M15.5497 16.1701H14.5097V10.1401L14.3797 10.7201L12.5997 15.9601C12.5464 16.1001 12.4564 16.1701 12.3297 16.1701H11.6997C11.5664 16.1701 11.4797 16.1001 11.4397 15.9601L9.64975 10.7301L9.52975 10.1501V16.1701H8.48975V8.88011C8.48975 8.77344 8.50641 8.70344 8.53975 8.67011C8.57308 8.63011 8.64308 8.61011 8.74975 8.61011H9.60975C9.70308 8.61011 9.77308 8.63011 9.81975 8.67011C9.86641 8.71011 9.90308 8.76677 9.92975 8.84011L11.7797 14.1301L12.0197 14.9701L12.2597 14.1301L14.1097 8.84011C14.1364 8.76677 14.1731 8.71011 14.2197 8.67011C14.2664 8.63011 14.3364 8.61011 14.4297 8.61011H15.2897C15.3964 8.61011 15.4664 8.63011 15.4997 8.67011C15.5331 8.70344 15.5497 8.77344 15.5497 8.88011V16.1701Z" fill="#1E212E"/>
    <path fill-rule="evenodd" clip-rule="evenodd" d="M20.4 5.9998H3.6C2.27452 5.9998 1.2 7.07432 1.2 8.39981V15.1998C1.2 16.5253 2.27452 17.5998 3.6 17.5998H20.4C21.7255 17.5998 22.8 16.5253 22.8 15.1998V8.3998C22.8 7.07432 21.7255 5.9998 20.4 5.9998ZM3.6 4.7998C1.61178 4.7998 0 6.41158 0 8.39981V15.1998C0 17.188 1.61178 18.7998 3.6 18.7998H20.4C22.3882 18.7998 24 17.188 24 15.1998V8.3998C24 6.41158 22.3882 4.7998 20.4 4.7998H3.6Z" fill="#1E212E"/>
</svg>
