<svg width="24" height="24" viewBox="0 0 24 24" xmlns="http://www.w3.org/2000/svg">
    <path fill-rule="evenodd" clip-rule="evenodd" d="M15.6365 16.5194C16.9774 14.611 18 12.4795 18 10.4866C18 6.8398 15.2515 4 12 4C8.74853 4 6 6.8398 6 10.4866C6 12.4795 7.02264 14.611 8.36351 16.5194C9.65726 18.3609 11.1564 19.8675 12 20.6562C12.8436 19.8675 14.3427 18.3609 15.6365 16.5194ZM12.6233 21.4423C14.3382 19.8488 19 15.0931 19 10.4866C19 6.35188 15.866 3 12 3C8.13401 3 5 6.35188 5 10.4866C5 15.0931 9.66184 19.8488 11.3767 21.4423C11.732 21.7724 12.268 21.7724 12.6233 21.4423Z"/>
    <path fill-rule="evenodd" clip-rule="evenodd" d="M12 12C13.1046 12 14 11.1046 14 10C14 8.89543 13.1046 8 12 8C10.8954 8 10 8.89543 10 10C10 11.1046 10.8954 12 12 12ZM12 13C13.6569 13 15 11.6569 15 10C15 8.34315 13.6569 7 12 7C10.3431 7 9 8.34315 9 10C9 11.6569 10.3431 13 12 13Z"/>
</svg>
