<svg width="24" height="24" viewBox="0 0 24 24" xmlns="http://www.w3.org/2000/svg">
    <path d="M13.9961 3.2002C13.9961 4.30476 13.1007 5.20019 11.9961 5.20019C10.8915 5.20019 9.99609 4.30476 9.99609 3.2002C9.99609 2.09563 10.8915 1.2002 11.9961 1.2002C13.1007 1.2002 13.9961 2.09563 13.9961 3.2002Z"/>
    <path d="M13.9961 12.2C13.9961 13.3045 13.1007 14.2 11.9961 14.2C10.8915 14.2 9.99609 13.3045 9.99609 12.2C9.99609 11.0954 10.8915 10.2 11.9961 10.2C13.1007 10.2 13.9961 11.0954 13.9961 12.2Z"/>
    <path d="M13.9961 21.2006C13.9961 22.3051 13.1007 23.2006 11.9961 23.2006C10.8915 23.2006 9.99609 22.3051 9.99609 21.2006C9.99609 20.096 10.8915 19.2006 11.9961 19.2006C13.1007 19.2006 13.9961 20.096 13.9961 21.2006Z"/>
</svg>
