<svg width="24" height="24" viewBox="0 0 24 24" xmlns="http://www.w3.org/2000/svg">
    <path d="M12.5293 7.3424C12.6806 7.45389 12.7566 7.64076 12.726 7.82615L11.9025 12.825L16.9715 20.4358C17.1246 20.6657 17.0624 20.9761 16.8325 21.1291C16.6027 21.2822 16.2923 21.22 16.1392 20.9901L10.961 13.2153C10.8908 13.1099 10.8632 12.9818 10.8838 12.8568L11.5801 8.63019L9.15275 9.84385L7.48624 13.1625C7.36232 13.4093 7.06181 13.5089 6.81504 13.3849C6.56826 13.261 6.46867 12.9605 6.59259 12.7137L8.33368 9.24657C8.38209 9.15016 8.4604 9.07199 8.5569 9.02374L12.0091 7.29766C12.1771 7.21363 12.3781 7.23092 12.5293 7.3424Z"/>
    <path d="M13.511 10.1186C13.6341 9.87138 13.9342 9.77075 14.1814 9.89382L17.6486 11.6199C17.8958 11.743 17.9964 12.0431 17.8734 12.2903C17.7503 12.5375 17.4501 12.6382 17.2029 12.5151L13.7358 10.789C13.4886 10.666 13.3879 10.3658 13.511 10.1186Z"/>
    <path d="M10.7986 15.1289C11.0227 15.2902 11.0736 15.6027 10.9123 15.8268L6.97982 21.2902C6.8185 21.5143 6.50604 21.5652 6.28192 21.4039C6.0578 21.2426 6.00688 20.9301 6.1682 20.706L10.1007 15.2426C10.262 15.0185 10.5744 14.9676 10.7986 15.1289Z"/>
    <path d="M13.7636 3.48682C13.2108 3.48682 12.7627 3.93495 12.7627 4.48775C12.7627 5.04056 13.2108 5.48869 13.7636 5.48869C14.3164 5.48869 14.7646 5.04056 14.7646 4.48775C14.7646 3.93495 14.3164 3.48682 13.7636 3.48682ZM11.7627 4.48775C11.7627 3.38267 12.6585 2.48682 13.7636 2.48682C14.8687 2.48682 15.7646 3.38267 15.7646 4.48775C15.7646 5.59284 14.8687 6.48869 13.7636 6.48869C12.6585 6.48869 11.7627 5.59284 11.7627 4.48775Z"/>
</svg>
