<svg width="24" height="24" viewBox="0 0 24 24" xmlns="http://www.w3.org/2000/svg">
    <path fill-rule="evenodd" clip-rule="evenodd" d="M14.4001 8.39995H6.0001C5.33736 8.39995 4.8001 8.93721 4.8001 9.59995V18C4.8001 18.6627 5.33736 19.2 6.0001 19.2H14.4001C15.0628 19.2 15.6001 18.6627 15.6001 18V9.59995C15.6001 8.93721 15.0628 8.39995 14.4001 8.39995ZM6.0001 7.19995C4.67461 7.19995 3.6001 8.27447 3.6001 9.59995V18C3.6001 19.3254 4.67461 20.4 6.0001 20.4H14.4001C15.7256 20.4 16.8001 19.3254 16.8001 18V9.59995C16.8001 8.27447 15.7256 7.19995 14.4001 7.19995H6.0001Z"/>
    <path fill-rule="evenodd" clip-rule="evenodd" d="M9.59995 4.79998H18C18.6627 4.79998 19.2 5.33723 19.2 5.99998V14.4C19.2 15.0627 18.6627 15.6 18 15.6H15.6V16.8H18C19.3254 16.8 20.4 15.7255 20.4 14.4V5.99998C20.4 4.67449 19.3254 3.59998 18 3.59998H9.59995C8.27447 3.59998 7.19995 4.67449 7.19995 5.99997V8.39988H8.39995V5.99997C8.39995 5.33723 8.93721 4.79998 9.59995 4.79998Z"/>
</svg>
