<svg width="24" height="24" viewBox="0 0 24 24" xmlns="http://www.w3.org/2000/svg">
    <path fill-rule="evenodd" clip-rule="evenodd" d="M2.03279 10.9937L12.9668 21.9277L18.9136 15.9809L7.97958 5.04686L2.03279 10.9937ZM0.677595 10.3161C0.30337 10.6903 0.303371 11.297 0.677597 11.6712L12.2892 23.2829C12.6634 23.6571 13.2702 23.6571 13.6444 23.2829L20.2688 16.6585C20.643 16.2843 20.643 15.6775 20.2688 15.3033L8.65717 3.69167C8.28295 3.31745 7.67621 3.31745 7.30198 3.69167L0.677595 10.3161Z"/>
    <path d="M11.4705 21.4669L18.4526 14.4848L19.9488 15.981L12.9666 22.9631L11.4705 21.4669Z"/>
    <path d="M13.7088 2.05417C13.7438 1.79187 13.9848 1.60759 14.2471 1.64256C16.977 2.00656 19.1144 3.01518 20.6597 4.65409C22.2018 6.28964 23.1131 8.50935 23.475 11.2231C23.51 11.4854 23.3257 11.7264 23.0634 11.7613C22.8011 11.7963 22.5601 11.612 22.5251 11.3497C22.1817 8.77372 21.3297 6.76161 19.9625 5.31147C18.5984 3.86469 16.6803 2.93373 14.1205 2.59242C13.8582 2.55745 13.6739 2.31647 13.7088 2.05417Z"/>
    <path d="M16.35 0.363433C16.4944 0.585223 16.4316 0.882023 16.2098 1.02635L14.4799 2.15206L15.6056 3.8819C15.75 4.10369 15.6872 4.40049 15.4654 4.54482C15.2436 4.68915 14.9468 4.62636 14.8025 4.40457L13.4154 2.27314C13.3461 2.16664 13.322 2.03696 13.3483 1.91263C13.3746 1.78831 13.4492 1.67953 13.5557 1.61022L15.6871 0.223181C15.9089 0.0788501 16.2057 0.141643 16.35 0.363433Z"/>
</svg>
