<svg width="24" height="24" viewBox="0 0 24 24" xmlns="http://www.w3.org/2000/svg">
    <path fill-rule="evenodd" clip-rule="evenodd" d="M8.24697 6.69231C7.78593 6.56692 7.3008 6.5 6.80005 6.5C3.76248 6.5 1.30005 8.96243 1.30005 12C1.30005 15.0376 3.76248 17.5 6.80005 17.5C7.3008 17.5 7.78593 17.4331 8.24697 17.3077C6.58488 16.1303 5.5 14.1918 5.5 12C5.5 9.80815 6.58488 7.86969 8.24697 6.69231ZM9.40003 17.9592C8.60383 18.307 7.72448 18.5 6.80005 18.5C3.2102 18.5 0.300049 15.5899 0.300049 12C0.300049 8.41015 3.2102 5.5 6.80005 5.5C7.72448 5.5 8.60383 5.69298 9.40003 6.04085C10.1962 5.69298 11.0756 5.5 12 5.5C12.9244 5.5 13.8038 5.69298 14.6 6.04085C15.3962 5.69298 16.2755 5.5 17.2 5.5C20.7898 5.5 23.7 8.41015 23.7 12C23.7 15.5899 20.7898 18.5 17.2 18.5C16.2755 18.5 15.3962 18.307 14.6 17.9592C13.8038 18.307 12.9244 18.5 12 18.5C11.0756 18.5 10.1962 18.307 9.40003 17.9592ZM12 6.5C12.5008 6.5 12.9859 6.56692 13.4469 6.69231C11.7848 7.86969 10.7 9.80815 10.7 12C10.7 14.1918 11.7848 16.1303 13.4469 17.3077C12.9859 17.4331 12.5008 17.5 12 17.5C8.96243 17.5 6.5 15.0376 6.5 12C6.5 8.96243 8.96243 6.5 12 6.5ZM17.2 6.5C20.2375 6.5 22.7 8.96243 22.7 12C22.7 15.0376 20.2375 17.5 17.2 17.5C14.1624 17.5 11.7 15.0376 11.7 12C11.7 8.96243 14.1624 6.5 17.2 6.5Z"/>
</svg>
