<svg width="24" height="24" viewBox="0 0 24 24" xmlns="http://www.w3.org/2000/svg">
    <path fill-rule="evenodd" clip-rule="evenodd" d="M12 9.8C14.0987 9.8 15.8 8.09868 15.8 6C15.8 3.90132 14.0987 2.2 12 2.2C9.90132 2.2 8.2 3.90132 8.2 6C8.2 8.09868 9.90132 9.8 12 9.8ZM12 11C14.7614 11 17 8.76142 17 6C17 3.23858 14.7614 1 12 1C9.23858 1 7 3.23858 7 6C7 8.76142 9.23858 11 12 11Z"/>
    <path fill-rule="evenodd" clip-rule="evenodd" d="M12.2778 14.2H11.7222C7.32712 14.2 3.7091 17.5271 3.24932 21.8H20.7507C20.2909 17.5271 16.6729 14.2 12.2778 14.2ZM11.7222 13C6.35279 13 2 17.3528 2 22.7222C2 22.8756 2.12437 23 2.27778 23H21.7222C21.8756 23 22 22.8756 22 22.7222C22 17.3528 17.6472 13 12.2778 13H11.7222Z"/>
</svg>
