<svg width="25" height="24" viewBox="0 0 25 24" fill="none" xmlns="http://www.w3.org/2000/svg">
    <path d="M2.04804 20.2817L4.29804 11.2817C4.3982 10.8811 4.75818 10.6 5.17116 10.6H23.2027C23.7642 10.6 24.1886 11.1085 24.0882 11.661L22.4518 20.661C22.374 21.0889 22.0013 21.4 21.5663 21.4H2.92116C2.33565 21.4 1.90603 20.8498 2.04804 20.2817Z" fill="#F5F5F5" stroke="#1E212E" stroke-width="1.2" stroke-linecap="round"/>
    <path fill-rule="evenodd" clip-rule="evenodd" d="M2.2 3.2L8.10181 3.2L10.2532 5.69914C10.7092 6.22875 11.3733 6.53333 12.0721 6.53333H21.8V10H23V6.53333C23 5.87059 22.4627 5.33333 21.8 5.33333H12.0721C11.7227 5.33333 11.3906 5.18104 11.1627 4.91624L9.01124 2.4171C8.78328 2.15229 8.45122 2 8.10181 2H2.2C1.53726 2 1 2.53726 1 3.2V20.8C1 21.4627 1.53726 22 2.2 22H2.92116C1.94531 22 1.22927 21.0829 1.46595 20.1362L2.2 17.2L2.2 3.2V3.2ZM21.5663 22H21.8C22.3997 22 22.8967 21.56 22.9858 20.9852C22.7815 21.5843 22.2155 22 21.5663 22Z" fill="#1E212E"/>
</svg>
