<svg width="24" height="24" viewBox="0 0 24 24" xmlns="http://www.w3.org/2000/svg">
    <path d="M15.9284 11.8863C15.9284 12.8181 15.7579 13.6192 15.417 14.2897C15.0761 14.9573 14.6088 15.4715 14.015 15.8323C13.4241 16.1903 12.7522 16.3692 11.9994 16.3692C11.2437 16.3692 10.569 16.1903 9.97525 15.8323C9.38434 15.4715 8.91843 14.9559 8.57753 14.2854C8.23662 13.615 8.06616 12.8153 8.06616 11.8863C8.06616 10.9545 8.23662 10.1547 8.57753 9.48713C8.91843 8.81667 9.38434 8.30247 9.97525 7.94451C10.569 7.58372 11.2437 7.40332 11.9994 7.40332C12.7522 7.40332 13.4241 7.58372 14.015 7.94451C14.6088 8.30247 15.0761 8.81667 15.417 9.48713C15.7579 10.1547 15.9284 10.9545 15.9284 11.8863ZM14.6244 11.8863C14.6244 11.176 14.5093 10.578 14.2792 10.0922C14.052 9.6036 13.7395 9.23429 13.3417 8.98429C12.9468 8.73145 12.4994 8.60502 11.9994 8.60502C11.4966 8.60502 11.0477 8.73145 10.6528 8.98429C10.2579 9.23429 9.94542 9.6036 9.71531 10.0922C9.48804 10.578 9.3744 11.176 9.3744 11.8863C9.3744 12.5965 9.48804 13.1959 9.71531 13.6846C9.94542 14.1704 10.2579 14.5397 10.6528 14.7925C11.0477 15.0425 11.4966 15.1675 11.9994 15.1675C12.4994 15.1675 12.9468 15.0425 13.3417 14.7925C13.7395 14.5397 14.052 14.1704 14.2792 13.6846C14.5093 13.1959 14.6244 12.5965 14.6244 11.8863Z"/>
    <path fill-rule="evenodd" clip-rule="evenodd" d="M19 1H5C2.79086 1 1 2.79086 1 5V19C1 21.2091 2.79086 23 5 23H19C21.2091 23 23 21.2091 23 19V5C23 2.79086 21.2091 1 19 1ZM5 0C2.23858 0 0 2.23858 0 5V19C0 21.7614 2.23858 24 5 24H19C21.7614 24 24 21.7614 24 19V5C24 2.23858 21.7614 0 19 0H5Z"/>
</svg>
