<svg width="24" height="24" viewBox="0 0 24 24" fill="none" xmlns="http://www.w3.org/2000/svg">
    <path d="M15.9284 11.8864C15.9284 12.8182 15.758 13.6193 15.4171 14.2898C15.0762 14.9574 14.6088 15.4716 14.0151 15.8324C13.4242 16.1903 12.7523 16.3693 11.9995 16.3693C11.2438 16.3693 10.5691 16.1903 9.97532 15.8324C9.38441 15.4716 8.9185 14.956 8.57759 14.2855C8.23668 13.6151 8.06623 12.8153 8.06623 11.8864C8.06623 10.9545 8.23668 10.1548 8.57759 9.48722C8.9185 8.81676 9.38441 8.30256 9.97532 7.9446C10.5691 7.58381 11.2438 7.40341 11.9995 7.40341C12.7523 7.40341 13.4242 7.58381 14.0151 7.9446C14.6088 8.30256 15.0762 8.81676 15.4171 9.48722C15.758 10.1548 15.9284 10.9545 15.9284 11.8864ZM14.6245 11.8864C14.6245 11.1761 14.5094 10.5781 14.2793 10.0923C14.052 9.60369 13.7395 9.23438 13.3418 8.98438C12.9469 8.73153 12.4995 8.60511 11.9995 8.60511C11.4966 8.60511 11.0478 8.73153 10.6529 8.98438C10.258 9.23438 9.94549 9.60369 9.71538 10.0923C9.4881 10.5781 9.37447 11.1761 9.37447 11.8864C9.37447 12.5966 9.4881 13.196 9.71538 13.6847C9.94549 14.1705 10.258 14.5398 10.6529 14.7926C11.0478 15.0426 11.4966 15.1676 11.9995 15.1676C12.4995 15.1676 12.9469 15.0426 13.3418 14.7926C13.7395 14.5398 14.052 14.1705 14.2793 13.6847C14.5094 13.196 14.6245 12.5966 14.6245 11.8864Z" fill="#1E212E"/>
    <rect x="0.5" y="0.5" width="23" height="23" rx="4.5" stroke="#1E212E"/>
</svg>
