<svg width="25" height="24" viewBox="0 0 25 24" xmlns="http://www.w3.org/2000/svg">
    <path d="M4.46594 11.1362L2.46594 19.1362C2.22926 20.0829 2.94529 21 3.92115 21H20.7481C21.473 21 22.0942 20.4816 22.2239 19.7683L23.6785 11.7683C23.8459 10.8476 23.1385 10 22.2027 10H5.92115C5.23285 10 4.63287 10.4684 4.46594 11.1362Z" fill="none"/>
    <path d="M5.63011 11.4272L3.63011 19.4272C3.58277 19.6166 3.72598 19.8 3.92115 19.8H20.7481C20.8931 19.8 21.0173 19.6963 21.0433 19.5537L22.4978 11.5537C22.5313 11.3695 22.3898 11.2 22.2027 11.2H5.92115C5.78349 11.2 5.66349 11.2937 5.63011 11.4272ZM2.46594 19.1362L4.46594 11.1362C4.63287 10.4684 5.23285 10 5.92115 10H22.2027C23.1385 10 23.8459 10.8476 23.6785 11.7683L22.2239 19.7683C22.0942 20.4816 21.473 21 20.7481 21H3.92115C2.94529 21 2.22926 20.0829 2.46594 19.1362Z"/>
    <path d="M3.39995 4.2L8.53654 4.2L10.401 6.3658L11.3104 5.5829L10.401 6.3658C10.8569 6.89541 11.5211 7.2 12.2199 7.2H20.8V10.2H22V7.2C22 6.53726 21.4627 6 20.8 6H12.2199C11.8705 6 11.5384 5.84771 11.3104 5.5829L9.44597 3.4171C9.21801 3.15229 8.88596 3 8.53654 3H3.39995C2.73721 3 2.19995 3.53726 2.19995 4.2V19.8C2.19995 20.4627 2.73721 21 3.39995 21H4.12112C3.14526 21 2.42922 20.0829 2.6659 19.1362L3.39995 16.2V4.2L3.39995 4.2ZM20.5845 21H20.7999C21.3646 21 21.8381 20.6101 21.966 20.0848C21.7355 20.6298 21.197 21 20.5845 21Z"/>
</svg>
