<svg width="24" height="24" viewBox="0 0 24 24" xmlns="http://www.w3.org/2000/svg">
    <path d="M1.3999 1.00002C1.3999 0.668654 1.66853 0.400024 1.9999 0.400024H20.9999C21.3313 0.400024 21.5999 0.668654 21.5999 1.00002V3.75002C21.5999 4.0814 21.3313 4.35002 20.9999 4.35002C20.6685 4.35002 20.3999 4.0814 20.3999 3.75002V1.60002H2.5999V22.4H20.3999V20.25C20.3999 19.9187 20.6685 19.65 20.9999 19.65C21.3313 19.65 21.5999 19.9187 21.5999 20.25V23C21.5999 23.3314 21.3313 23.6 20.9999 23.6H1.9999C1.66853 23.6 1.3999 23.3314 1.3999 23V1.00002Z"/>
    <path d="M17.9225 6.44648C18.2282 6.16698 18.7026 6.18823 18.9821 6.49393L23.5535 11.4939C23.8155 11.7805 23.8155 12.2196 23.5535 12.5061L18.9821 17.5061C18.7026 17.8118 18.2282 17.833 17.9225 17.5535C17.6168 17.274 17.5956 16.7996 17.875 16.4939L21.2981 12.75H7C6.58579 12.75 6.25 12.4142 6.25 12C6.25 11.5858 6.58579 11.25 7 11.25H21.2981L17.875 7.50608C17.5956 7.20038 17.6168 6.72598 17.9225 6.44648Z"/>
</svg>
