<svg width="24" height="24" viewBox="0 0 24 24" xmlns="http://www.w3.org/2000/svg">
    <path fill-rule="evenodd" clip-rule="evenodd" d="M21 3.50037H3C2.72386 3.50037 2.5 3.72422 2.5 4.00037V15.0004C2.5 15.2765 2.72386 15.5004 3 15.5004H21C21.2761 15.5004 21.5 15.2765 21.5 15.0004V4.00037C21.5 3.72422 21.2761 3.50037 21 3.50037ZM3 2.00037C1.89543 2.00037 1 2.8958 1 4.00037V15.0004C1 16.1049 1.89543 17.0004 3 17.0004H21C22.1046 17.0004 23 16.1049 23 15.0004V4.00037C23 2.8958 22.1046 2.00037 21 2.00037H3Z"/>
    <path d="M4 22.5C4 22.2239 4.22386 22 4.5 22H19.5C19.7761 22 20 22.2239 20 22.5C20 22.7761 19.7761 23 19.5 23H4.5C4.22386 23 4 22.7761 4 22.5Z"/>
    <path d="M10 16.5H14L14.5 22H9.5L10 16.5Z"/>
</svg>
