<svg width="24" height="24" viewBox="0 0 24 24" xmlns="http://www.w3.org/2000/svg">
    <path d="M15.3535 1.64628C15.5487 1.45102 15.8653 1.45102 16.0606 1.64628L21.6613 7.24702C21.8566 7.44228 21.8566 7.75886 21.6613 7.95412C21.4661 8.14939 21.1495 8.14939 20.9542 7.95412L15.3535 2.35338C15.1582 2.15812 15.1582 1.84154 15.3535 1.64628Z"/>
    <path d="M16.475 2.63245L20.9276 7.08505L15.7333 12.2793L15.7336 12.2795L14.9915 15.99L7.57047 8.56904L11.2804 7.82705L16.475 2.63245ZM14.9904 15.9905L7.56942 8.56949L6.43878 9.70014C6.24352 9.8954 6.24352 10.212 6.43878 10.4072L13.1527 17.1211C13.3479 17.3164 13.6645 17.3164 13.8598 17.1211L14.9904 15.9905Z"/>
    <path d="M10.5207 13.0044C10.716 13.1996 10.716 13.5162 10.5207 13.7115L4.54892 19.6833C4.35366 19.8785 4.03708 19.8785 3.84182 19.6833C3.64656 19.488 3.64656 19.1714 3.84182 18.9761L9.81361 13.0044C10.0089 12.8091 10.3255 12.8091 10.5207 13.0044Z"/>
</svg>
