<svg width="24" height="24" viewBox="0 0 24 24" fill="none" xmlns="http://www.w3.org/2000/svg">
    <rect x="0.5" y="4.5" width="19" height="19" rx="1.5" stroke="#1E212E"/>
    <path fill-rule="evenodd" clip-rule="evenodd" d="M5.99992 1H21.9999C22.5522 1 22.9999 1.44772 22.9999 2V18C22.9999 18.3785 22.7896 18.708 22.4794 18.8778C22.2372 19.0104 21.9999 19.2239 21.9999 19.5C21.9999 19.7761 22.2273 20.0064 22.4949 19.9383C23.36 19.718 23.9999 18.9337 23.9999 18V2C23.9999 0.895431 23.1045 0 21.9999 0H5.99992C5.06618 0 4.28189 0.63988 4.06163 1.50506C3.9935 1.77267 4.22378 2 4.49992 2C4.77606 2 4.98956 1.76274 5.12215 1.52051C5.29195 1.21034 5.62137 1 5.99992 1Z" fill="#1E212E"/>
</svg>
