<svg width="24" height="24" viewBox="0 0 24 24" xmlns="http://www.w3.org/2000/svg">
    <path fill-rule="evenodd" clip-rule="evenodd" d="M1.2 12C1.2 17.9647 6.03532 22.8 12 22.8C17.9647 22.8 22.8 17.9647 22.8 12C22.8 6.03533 17.9647 1.2 12 1.2C6.03532 1.2 1.2 6.03533 1.2 12ZM12 0C5.37258 0 0 5.37258 0 12C0 18.6274 5.37258 24 12 24C18.6274 24 24 18.6274 24 12C24 5.37258 18.6274 0 12 0Z"/>
    <path d="M17 11.9995C17 12.4137 16.6642 12.7495 16.25 12.7495L7.75 12.7495C7.33579 12.7495 7 12.4137 7 11.9995C7 11.5853 7.33579 11.2495 7.75 11.2495L16.25 11.2495C16.6642 11.2495 17 11.5853 17 11.9995Z"/>
</svg>
