<svg width="24" height="24" viewBox="0 0 24 24" fill="none" xmlns="http://www.w3.org/2000/svg">
    <path d="M17.6399 12.6C17.6399 14.9196 15.7595 16.8 13.4399 16.8C11.1203 16.8 9.23989 14.9196 9.23989 12.6C9.23989 10.2805 11.1203 8.40005 13.4399 8.40005C15.7595 8.40005 17.6399 10.2805 17.6399 12.6Z" stroke="#1E212E" stroke-width="1.2" stroke-linecap="square" stroke-linejoin="round"/>
    <path d="M0.600098 10.8L3.8401 14.4L7.0801 10.8" stroke="#1E212E" stroke-width="1.2" stroke-linecap="round" stroke-linejoin="round"/>
    <path fill-rule="evenodd" clip-rule="evenodd" d="M4.43999 12.6C4.43999 7.62946 8.46943 3.60002 13.44 3.60002C18.4106 3.60002 22.44 7.62946 22.44 12.6C22.44 17.3689 18.7309 21.2715 14.0401 21.5803C13.7095 21.6021 13.44 21.8687 13.44 22.2C13.44 22.5314 13.7092 22.8019 14.04 22.7827C19.394 22.4721 23.64 18.0319 23.64 12.6C23.64 6.96672 19.0733 2.40002 13.44 2.40002C7.80669 2.40002 3.23999 6.96672 3.23999 12.6C3.23999 12.826 3.24734 13.0503 3.26182 13.2727C3.28143 13.574 3.53747 13.8 3.83943 13.8C4.19943 13.8 4.47556 13.4828 4.45495 13.1234C4.44502 12.9502 4.43999 12.7757 4.43999 12.6Z" fill="#1E212E"/>
</svg>
