<svg width="24" height="24" viewBox="0 0 24 24" xmlns="http://www.w3.org/2000/svg">
    <path fill-rule="evenodd" clip-rule="evenodd" d="M13.4399 16.1998C15.4281 16.1998 17.0399 14.588 17.0399 12.5998C17.0399 10.6116 15.4281 8.9998 13.4399 8.9998C11.4517 8.9998 9.83989 10.6116 9.83989 12.5998C9.83989 14.588 11.4517 16.1998 13.4399 16.1998ZM13.4399 17.3998C16.0909 17.3998 18.2399 15.2508 18.2399 12.5998C18.2399 9.94884 16.0909 7.7998 13.4399 7.7998C10.7889 7.7998 8.63989 9.94884 8.63989 12.5998C8.63989 15.2508 10.7889 17.3998 13.4399 17.3998Z"/>
    <path d="M0.198626 10.354C0.444932 10.1323 0.824306 10.1523 1.04598 10.3986L3.84001 13.503L6.63403 10.3986C6.8557 10.1523 7.23508 10.1323 7.48138 10.354C7.72769 10.5757 7.74766 10.955 7.52598 11.2013L4.28598 14.8013C4.1722 14.9278 4.0101 15 3.84001 15C3.66991 15 3.50781 14.9278 3.39403 14.8013L0.154029 11.2013C-0.0676468 10.955 -0.0476797 10.5757 0.198626 10.354Z"/>
    <path d="M4.43999 12.5999C4.43999 7.62934 8.46943 3.5999 13.44 3.5999C18.4106 3.5999 22.44 7.62934 22.44 12.5999C22.44 17.3688 18.7309 21.2714 14.0401 21.5802C13.7095 21.602 13.44 21.8685 13.44 22.1999C13.44 22.5313 13.7092 22.8017 14.04 22.7825C19.394 22.4719 23.64 18.0318 23.64 12.5999C23.64 6.9666 19.0733 2.3999 13.44 2.3999C7.80669 2.3999 3.23999 6.9666 3.23999 12.5999C3.23999 12.8259 3.24734 13.0502 3.26182 13.2725C3.28143 13.5739 3.53747 13.7999 3.83943 13.7999C4.19943 13.7999 4.47556 13.4827 4.45495 13.1233C4.44502 12.9501 4.43999 12.7756 4.43999 12.5999Z"/>
</svg>
