<svg width="24" height="24" viewBox="0 0 24 24" xmlns="http://www.w3.org/2000/svg">
    <path d="M5.31445 12.7867C5.31445 12.1011 5.87024 11.5453 6.55583 11.5453H17.4437C18.1293 11.5453 18.6851 12.1011 18.6851 12.7867V17.4438C18.6851 18.1294 18.1293 18.6851 17.4437 18.6851H6.55583C5.87024 18.6851 5.31445 18.1294 5.31445 17.4438V12.7867ZM6.55583 12.4544C6.37231 12.4544 6.22354 12.6031 6.22354 12.7867V17.4438C6.22354 17.6273 6.37231 17.7761 6.55583 17.7761H17.4437C17.6272 17.7761 17.776 17.6273 17.776 17.4438V12.7867C17.776 12.6031 17.6272 12.4544 17.4437 12.4544H6.55583Z"/>
    <path d="M7.3916 4.47856C7.3916 3.79297 7.94739 3.23718 8.63298 3.23718H12.5978C13.2834 3.23718 13.8392 3.79297 13.8392 4.47856V7.05874C13.8392 7.74433 13.2834 8.30012 12.5978 8.30012H8.63298C7.94739 8.30012 7.3916 7.74433 7.3916 7.05874V4.47856ZM8.63298 4.14627C8.44946 4.14627 8.30069 4.29504 8.30069 4.47856V7.05874C8.30069 7.24226 8.44946 7.39103 8.63298 7.39103H12.5978C12.7813 7.39103 12.9301 7.24226 12.9301 7.05874V4.47856C12.9301 4.29504 12.7813 4.14627 12.5978 4.14627H8.63298Z"/>
    <path d="M15.2628 3.78679C15.2628 3.10119 15.8186 2.54541 16.5042 2.54541H16.6596C16.9922 2.54541 17.3108 2.67883 17.5441 2.91576L21.0976 6.52422C21.3263 6.75645 21.4545 7.06931 21.4545 7.39525V20.2131C21.4545 20.8987 20.8987 21.4545 20.2131 21.4545H3.78679C3.10119 21.4545 2.54541 20.8987 2.54541 20.2131V3.87345C2.54541 3.18785 3.10119 2.63207 3.78679 2.63207H5.19682C5.88241 2.63207 6.4382 3.18785 6.4382 3.87345V8.73719C6.4382 8.92071 6.58697 9.06948 6.77048 9.06948H14.9305C15.114 9.06948 15.2628 8.92071 15.2628 8.73719V3.78679ZM16.5042 3.4545C16.3207 3.4545 16.1719 3.60327 16.1719 3.78679V8.73719C16.1719 9.42279 15.6161 9.97857 14.9305 9.97857H6.77048C6.08489 9.97857 5.52911 9.42279 5.52911 8.73719V3.87345C5.52911 3.68993 5.38033 3.54116 5.19682 3.54116H3.78679C3.60327 3.54116 3.4545 3.68993 3.4545 3.87345V20.2131C3.4545 20.3966 3.60327 20.5454 3.78679 20.5454H20.2131C20.3966 20.5454 20.5454 20.3966 20.5454 20.2131V7.39525C20.5454 7.308 20.5111 7.22425 20.4499 7.16209L16.8964 3.55364C16.8339 3.49021 16.7486 3.4545 16.6596 3.4545H16.5042Z"/>
</svg>
