<svg width="24" height="24" viewBox="0 0 24 24" xmlns="http://www.w3.org/2000/svg">
    <path d="M5.31445 12.7864C5.31445 12.1008 5.87024 11.545 6.55583 11.545H17.4437C18.1293 11.545 18.6851 12.1008 18.6851 12.7864V17.4435C18.6851 18.1291 18.1293 18.6849 17.4437 18.6849H6.55583C5.87024 18.6849 5.31445 18.1291 5.31445 17.4435V12.7864ZM6.55583 12.4541C6.37231 12.4541 6.22354 12.6029 6.22354 12.7864V17.4435C6.22354 17.627 6.37231 17.7758 6.55583 17.7758H17.4437C17.6272 17.7758 17.776 17.627 17.776 17.4435V12.7864C17.776 12.6029 17.6272 12.4541 17.4437 12.4541H6.55583Z"/>
    <path d="M7.3916 4.47832C7.3916 3.79272 7.94739 3.23694 8.63298 3.23694H12.5978C13.2834 3.23694 13.8392 3.79272 13.8392 4.47832V7.0585C13.8392 7.74409 13.2834 8.29988 12.5978 8.29988H8.63298C7.94739 8.29988 7.3916 7.74409 7.3916 7.0585V4.47832ZM8.63298 4.14603C8.44946 4.14603 8.30069 4.2948 8.30069 4.47832V7.0585C8.30069 7.24201 8.44946 7.39078 8.63298 7.39078H12.5978C12.7813 7.39078 12.9301 7.24201 12.9301 7.0585V4.47832C12.9301 4.2948 12.7813 4.14603 12.5978 4.14603H8.63298Z"/>
    <path d="M2.54541 3.87322C2.54541 3.18762 3.10119 2.63184 3.78679 2.63184H5.19682C5.88241 2.63184 6.4382 3.18762 6.4382 3.87322V8.73696C6.4382 8.92048 6.58697 9.06925 6.77048 9.06925H15.7173C15.9684 9.06925 16.1719 9.27276 16.1719 9.5238C16.1719 9.77483 15.9684 9.97834 15.7173 9.97834H6.77048C6.08489 9.97834 5.52911 9.42256 5.52911 8.73696V3.87322C5.52911 3.6897 5.38033 3.54093 5.19682 3.54093H3.78679C3.60327 3.54093 3.4545 3.6897 3.4545 3.87322V20.2129C3.4545 20.3964 3.60327 20.5452 3.78679 20.5452H20.2131C20.3966 20.5452 20.5454 20.3964 20.5454 20.2129V9.5238C20.5454 9.27276 20.7489 9.06925 21 9.06925C21.251 9.06925 21.4545 9.27276 21.4545 9.5238V20.2129C21.4545 20.8985 20.8987 21.4543 20.2131 21.4543H3.78679C3.10119 21.4543 2.54541 20.8985 2.54541 20.2129V3.87322Z"/>
    <path d="M18.5 2.61304C18.7761 2.61304 19 2.83689 19 3.11304L19 8.11304C19 8.38918 18.7761 8.61304 18.5 8.61304C18.2239 8.61304 18 8.38918 18 8.11304L18 3.11304C18 2.83689 18.2239 2.61304 18.5 2.61304Z"/>
    <path d="M21.5 5.61304C21.5 5.88918 21.2761 6.11304 21 6.11304H16C15.7239 6.11304 15.5 5.88918 15.5 5.61304C15.5 5.33689 15.7239 5.11304 16 5.11304H21C21.2761 5.11304 21.5 5.33689 21.5 5.61304Z"/>
</svg>
