<svg width="24" height="24" viewBox="0 0 24 24" xmlns="http://www.w3.org/2000/svg">
    <path d="M19.3526 4.64727L17.0658 4.89966C16.7364 4.93601 16.4399 4.69848 16.4036 4.3691C16.3672 4.03973 16.6048 3.74326 16.9341 3.7069L19.6658 3.40542C20.2041 3.3438 20.6561 3.7958 20.5944 4.33411L20.2929 7.06571C20.2566 7.39508 19.9601 7.63262 19.6307 7.59626C19.3014 7.55991 19.0638 7.26344 19.1002 6.93406L19.3526 4.64727Z"/>
    <path d="M20.4242 3.57564C20.6585 3.80995 20.6585 4.18985 20.4242 4.42417L17.4242 7.42417C17.1899 7.65848 16.81 7.65848 16.5756 7.42417C16.3413 7.18985 16.3413 6.80995 16.5756 6.57564L19.5756 3.57564C19.81 3.34132 20.1899 3.34132 20.4242 3.57564Z"/>
    <path d="M4.36898 16.4036C4.69835 16.4399 4.93589 16.7364 4.89954 17.0658L4.64715 19.3526L6.93394 19.1002C7.26331 19.0638 7.55979 19.3014 7.59614 19.6307C7.63249 19.9601 7.39496 20.2566 7.06558 20.2929L4.33398 20.5944C3.79567 20.6561 3.34368 20.2041 3.4053 19.6658L3.70678 16.9341C3.74313 16.6048 4.03961 16.3672 4.36898 16.4036Z"/>
    <path d="M7.42392 16.5756C7.65824 16.81 7.65824 17.1899 7.42392 17.4242L4.42392 20.4242C4.18961 20.6585 3.80971 20.6585 3.57539 20.4242C3.34108 20.1899 3.34108 19.81 3.57539 19.5756L6.57539 16.5756C6.80971 16.3413 7.18961 16.3413 7.42392 16.5756Z"/>
    <path d="M11.9999 7.60002C9.56985 7.60002 7.5999 9.56997 7.5999 12C7.5999 14.4301 9.56985 16.4 11.9999 16.4C14.43 16.4 16.3999 14.4301 16.3999 12C16.3999 9.56997 14.43 7.60002 11.9999 7.60002ZM6.3999 12C6.3999 8.90723 8.90711 6.40002 11.9999 6.40002C15.0927 6.40002 17.5999 8.90723 17.5999 12C17.5999 15.0928 15.0927 17.6 11.9999 17.6C8.90711 17.6 6.3999 15.0928 6.3999 12Z"/>
</svg>
