<svg width="24" height="24" viewBox="0 0 24 24" xmlns="http://www.w3.org/2000/svg">
    <path d="M11.9999 9.60002C10.6744 9.60002 9.5999 10.6745 9.5999 12C9.5999 13.3255 10.6744 14.4 11.9999 14.4C13.3254 14.4 14.3999 13.3255 14.3999 12C14.3999 10.6745 13.3254 9.60002 11.9999 9.60002ZM8.3999 12C8.3999 10.0118 10.0117 8.40002 11.9999 8.40002C13.9881 8.40002 15.5999 10.0118 15.5999 12C15.5999 13.9882 13.9881 15.6 11.9999 15.6C10.0117 15.6 8.3999 13.9882 8.3999 12Z"/>
    <path d="M16.3692 4.40345C16.6986 4.43981 16.9361 4.73628 16.8998 5.06565L16.6474 7.35244L18.9342 7.10006C19.2636 7.0637 19.56 7.30124 19.5964 7.63061C19.6327 7.95998 19.3952 8.25646 19.0658 8.29281L16.3342 8.59429C15.7959 8.65593 15.3439 8.20395 15.4055 7.66564L15.707 4.93401C15.7434 4.60464 16.0399 4.3671 16.3692 4.40345Z"/>
    <path d="M19.4242 4.57552C19.6585 4.80983 19.6585 5.18973 19.4242 5.42404L17.4242 7.42404C17.1899 7.65836 16.81 7.65836 16.5756 7.42404C16.3413 7.18973 16.3413 6.80983 16.5756 6.57552L18.5756 4.57552C18.81 4.3412 19.1899 4.3412 19.4242 4.57552Z"/>
    <path d="M7.35232 16.6474L5.06553 16.8998C4.73616 16.9361 4.43968 16.6986 4.40333 16.3692C4.36698 16.0399 4.60452 15.7434 4.93389 15.707L7.66552 15.4055C8.20383 15.3439 8.65581 15.7959 8.59417 16.3342L8.29269 19.0658C8.25634 19.3952 7.95986 19.6327 7.63049 19.5964C7.30112 19.56 7.06358 19.2636 7.09993 18.9342L7.35232 16.6474Z"/>
    <path d="M7.42392 16.5758C7.65824 16.8101 7.65824 17.19 7.42392 17.4243L5.42392 19.4243C5.18961 19.6586 4.80971 19.6586 4.57539 19.4243C4.34108 19.19 4.34108 18.8101 4.57539 18.5758L6.57539 16.5758C6.80971 16.3414 7.18961 16.3414 7.42392 16.5758Z"/>
</svg>
