<svg width="24" height="24" viewBox="0 0 24 24"  xmlns="http://www.w3.org/2000/svg">
    <path d="M14.6219 14.6219C14.9179 14.3259 15.3977 14.3259 15.6937 14.6219L23.778 22.7061C24.074 23.0021 24.074 23.482 23.778 23.778C23.4821 24.0739 23.0022 24.0739 22.7062 23.778L14.6219 15.6937C14.3259 15.3977 14.3259 14.9179 14.6219 14.6219Z"/>
    <path fill-rule="evenodd" clip-rule="evenodd" d="M9.09486 16.6738C13.2807 16.6738 16.6739 13.2805 16.6739 9.09478C16.6739 4.90903 13.2807 1.5158 9.09486 1.5158C4.90907 1.5158 1.51581 4.90903 1.51581 9.09478C1.51581 13.2805 4.90907 16.6738 9.09486 16.6738ZM9.09486 18.1896C14.1178 18.1896 18.1897 14.1177 18.1897 9.09478C18.1897 4.07187 14.1178 0 9.09486 0C4.07191 0 0 4.07187 0 9.09478C0 14.1177 4.07191 18.1896 9.09486 18.1896Z"/>
</svg>
