<svg width="24" height="24" viewBox="0 0 24 24" xmlns="http://www.w3.org/2000/svg">
    <path d="M1.97572 4.28381C1.62872 2.95367 3.00992 1.83409 4.23945 2.44885L20.4795 10.5689C21.6588 11.1585 21.6588 12.8414 20.4795 13.431L4.23945 21.5511C3.00992 22.1658 1.62873 21.0462 1.97572 19.7161L3.96228 12.1009C3.97955 12.0347 3.97955 11.9652 3.96228 11.899L1.97572 4.28381ZM3.70279 3.52217C3.39541 3.36847 3.05011 3.64837 3.13686 3.98091L5.12342 11.5961C5.19251 11.8609 5.19251 12.139 5.12342 12.4038L3.13686 20.019C3.05011 20.3515 3.39541 20.6314 3.70279 20.4777L19.9428 12.3577C20.2376 12.2103 20.2376 11.7896 19.9428 11.6422L3.70279 3.52217Z"/>
</svg>
