<svg width="24" height="24" viewBox="0 0 24 24" fill="none" xmlns="http://www.w3.org/2000/svg">
    <path d="M16.9345 12.0002C16.9345 14.4705 14.8622 16.5001 12.2721 16.5001C9.68187 16.5001 7.60962 14.4705 7.60962 12.0002C7.60962 9.52989 9.68187 7.50024 12.2721 7.50024C14.8622 7.50024 16.9345 9.52989 16.9345 12.0002Z" stroke="#1E212E"/>
    <mask id="path-2-inside-1_658_6442" fill="white">
        <path fill-rule="evenodd" clip-rule="evenodd" d="M8.87437 1C8.87437 0.447715 9.32209 0 9.87437 0H14.1254C14.6777 0 15.1254 0.447716 15.1254 1V2.79515C15.1254 3.22365 15.4006 3.59972 15.7949 3.76741C16.42 4.03323 17.0092 4.36273 17.5535 4.74732C17.8885 4.98399 18.3294 5.02862 18.6881 4.82982L20.4206 3.86975C20.8916 3.60875 21.4847 3.76755 21.7622 4.22898L23.8562 7.71015C24.148 8.19534 23.9792 8.82583 23.484 9.10027L21.855 10.003C21.4766 10.2127 21.2818 10.6414 21.3277 11.0716C21.3603 11.3768 21.377 11.6865 21.377 11.9999C21.377 12.3136 21.3603 12.6236 21.3276 12.929C21.2817 13.3592 21.4765 13.788 21.8549 13.9977L23.4837 14.9003C23.9789 15.1748 24.1478 15.8052 23.8559 16.2904L21.7619 19.7716C21.4844 20.233 20.8913 20.3918 20.4203 20.1308L18.6874 19.1705C18.3287 18.9717 17.8878 19.0163 17.5528 19.2529C17.0087 19.6373 16.4198 19.9667 15.7949 20.2324C15.4006 20.4001 15.1254 20.7761 15.1254 21.2046V22.9998C15.1254 23.552 14.6777 23.9998 14.1254 23.9998H9.87437C9.32209 23.9998 8.87437 23.552 8.87437 22.9998V21.2042C8.87437 20.7757 8.59921 20.3997 8.20495 20.232C7.58014 19.9662 6.99123 19.6368 6.44715 19.2523C6.11219 19.0156 5.67126 18.971 5.31251 19.1698L3.58011 20.1298C3.10912 20.3908 2.51603 20.232 2.23848 19.7706L0.144512 16.2894C-0.147335 15.8042 0.0214815 15.1738 0.516723 14.8993L2.14585 13.9965C2.52422 13.7868 2.71904 13.3581 2.67313 12.928C2.64057 12.6229 2.62388 12.3132 2.62388 11.9999C2.62388 11.6865 2.64058 11.3768 2.67315 11.0716C2.71907 10.6415 2.52425 10.2127 2.14588 10.0031L0.516453 9.1001C0.0212111 8.82566 -0.147606 8.19516 0.144241 7.70998L2.23821 4.22881C2.51576 3.76738 3.10885 3.60858 3.57984 3.86958L5.31269 4.82985C5.67143 5.02866 6.11235 4.98403 6.44731 4.74735C6.99135 4.36295 7.5802 4.03358 8.20495 3.76782C8.59921 3.6001 8.87437 3.22407 8.87437 2.79561V1Z"/>
    </mask>
    <path d="M8.20495 3.76782L7.8135 2.84762L8.20495 3.76782ZM0.516453 9.1001L0.0317439 9.97478L0.516453 9.1001ZM2.14588 10.0031L1.66117 10.8777L2.14588 10.0031ZM2.14585 13.9965L1.66115 13.1218L2.14585 13.9965ZM0.516723 14.8993L1.00143 15.774L0.516723 14.8993ZM3.58011 20.1298L4.06482 21.0045L3.58011 20.1298ZM2.23848 19.7706L1.38156 20.286L2.23848 19.7706ZM5.31251 19.1698L5.79722 20.0445L5.31251 19.1698ZM21.7619 19.7716L22.6189 20.2871L21.7619 19.7716ZM20.4203 20.1308L19.9356 21.0055L20.4203 20.1308ZM23.4837 14.9003L22.999 15.775L23.4837 14.9003ZM23.8559 16.2904L22.999 15.775L23.8559 16.2904ZM21.3276 12.929L20.3333 12.8227L21.3276 12.929ZM21.8549 13.9977L21.3702 14.8724L21.8549 13.9977ZM21.855 10.003L21.3703 9.12832L21.855 10.003ZM21.3277 11.0716L20.3334 11.1777L21.3277 11.0716ZM23.8562 7.71015L22.9993 8.2256L23.8562 7.71015ZM23.484 9.10027L22.9993 8.2256L23.484 9.10027ZM21.7622 4.22898L22.6191 3.71353L21.7622 4.22898ZM17.5535 4.74732L16.9764 5.56402L17.5535 4.74732ZM18.6881 4.82982L18.2034 3.95514L18.6881 4.82982ZM15.7949 3.76741L16.1863 2.84716L15.7949 3.76741ZM5.31269 4.82985L5.7974 3.95518L5.31269 4.82985ZM6.44731 4.74735L5.87025 3.93065L6.44731 4.74735ZM18.6874 19.1705L19.1721 18.2958L18.6874 19.1705ZM17.5528 19.2529L16.9758 18.4362L17.5528 19.2529ZM2.23821 4.22881L1.38129 3.71336L2.23821 4.22881ZM14.1254 -1H9.87437V1H14.1254V-1ZM16.1254 2.79515V1H14.1254V2.79515H16.1254ZM18.1306 3.93062C17.5284 3.50513 16.877 3.14089 16.1863 2.84716L15.4036 4.68765C15.9631 4.92558 16.49 5.22033 16.9764 5.56402L18.1306 3.93062ZM19.9359 2.99508L18.2034 3.95514L19.1728 5.70449L20.9053 4.74443L19.9359 2.99508ZM24.7131 7.1947L22.6191 3.71353L20.9053 4.74443L22.9993 8.2256L24.7131 7.1947ZM22.3397 10.8777L23.9687 9.97495L22.9993 8.2256L21.3703 9.12832L22.3397 10.8777ZM22.377 11.9999C22.377 11.6509 22.3584 11.3058 22.3221 10.9654L20.3334 11.1777C20.3622 11.4477 20.377 11.722 20.377 11.9999H22.377ZM22.322 13.0352C22.3584 12.6946 22.377 12.3492 22.377 11.9999H20.377C20.377 12.278 20.3622 12.5525 20.3333 12.8227L22.322 13.0352ZM23.9684 14.0256L22.3396 13.123L21.3702 14.8724L22.999 15.775L23.9684 14.0256ZM22.6189 20.2871L24.7128 16.8059L22.999 15.775L20.905 19.2562L22.6189 20.2871ZM18.2027 20.0452L19.9356 21.0055L20.905 19.2562L19.1721 18.2958L18.2027 20.0452ZM16.1863 21.1526C16.8767 20.859 17.5278 20.495 18.1298 20.0697L16.9758 18.4362C16.4896 18.7797 15.9629 19.0743 15.4036 19.3121L16.1863 21.1526ZM16.1254 22.9998V21.2046H14.1254V22.9998H16.1254ZM9.87437 24.9998H14.1254V22.9998H9.87437V24.9998ZM7.87437 21.2042V22.9998H9.87437V21.2042H7.87437ZM5.87007 20.069C6.47201 20.4943 7.12312 20.8585 7.8135 21.1522L8.59639 19.3118C8.03715 19.0739 7.51046 18.7792 7.02424 18.4356L5.87007 20.069ZM4.06482 21.0045L5.79722 20.0445L4.8278 18.2951L3.0954 19.2552L4.06482 21.0045ZM-0.712408 16.8049L1.38156 20.286L3.0954 19.2552L1.00143 15.774L-0.712408 16.8049ZM1.66115 13.1218L0.0320145 14.0246L1.00143 15.774L2.63056 14.8712L1.66115 13.1218ZM1.62388 11.9999C1.62388 12.3488 1.64246 12.6938 1.67878 13.0341L3.66748 12.8218C3.63868 12.5519 3.62388 12.2777 3.62388 11.9999H1.62388ZM1.6788 10.9655C1.64247 11.3058 1.62388 11.6509 1.62388 11.9999H3.62388C3.62388 11.722 3.63868 11.4478 3.6675 11.1778L1.6788 10.9655ZM2.63059 9.12838L1.00116 8.22542L0.0317439 9.97478L1.66117 10.8777L2.63059 9.12838ZM1.00116 8.22542L3.09513 4.74426L1.38129 3.71336L-0.712679 7.19453L1.00116 8.22542ZM3.09513 4.74426L4.82798 5.70453L5.7974 3.95518L4.06455 2.99491L3.09513 4.74426ZM7.8135 2.84762C7.12319 3.14127 6.47213 3.50537 5.87025 3.93065L7.02438 5.56405C7.51056 5.22052 8.0372 4.92589 8.59639 4.68802L7.8135 2.84762ZM7.87437 1V2.79561H9.87437V1H7.87437ZM8.59639 4.68802C9.31939 4.38046 9.87437 3.66709 9.87437 2.79561H7.87437C7.87437 2.79562 7.87437 2.79553 7.87439 2.79536C7.8744 2.79519 7.87442 2.79502 7.87445 2.79486C7.8745 2.79451 7.87453 2.79454 7.87437 2.79502C7.87407 2.79597 7.87267 2.79975 7.86851 2.8057C7.85945 2.81862 7.84127 2.83581 7.8135 2.84762L8.59639 4.68802ZM1.00116 8.22542H1.00116L-0.712679 7.19453C-1.29637 8.1649 -0.958739 9.42589 0.0317439 9.97478L1.00116 8.22542ZM3.6675 11.1778C3.7509 10.3966 3.40136 9.55551 2.63059 9.12838L1.66117 10.8777C1.66117 10.8777 1.66115 10.8777 1.6611 10.8777C1.66105 10.8777 1.66099 10.8776 1.66092 10.8776C1.66076 10.8775 1.66061 10.8774 1.66048 10.8773C1.66019 10.877 1.66024 10.877 1.66064 10.8775C1.66143 10.8783 1.66437 10.8817 1.66789 10.8891C1.67556 10.905 1.68237 10.9321 1.6788 10.9655L3.6675 11.1778ZM2.63056 14.8712C3.40132 14.4441 3.75086 13.603 3.66748 12.8218L1.67878 13.0341C1.68234 13.0675 1.67554 13.0946 1.66787 13.1105C1.66435 13.1178 1.6614 13.1213 1.66062 13.1221C1.66022 13.1225 1.66016 13.1225 1.66046 13.1223C1.66059 13.1222 1.66074 13.1221 1.66089 13.122C1.66097 13.1219 1.66103 13.1219 1.66108 13.1219C1.66112 13.1218 1.66115 13.1218 1.66115 13.1218L2.63056 14.8712ZM1.00143 15.774L1.00143 15.774L0.0320145 14.0246C-0.95847 14.5735 -1.2961 15.8345 -0.712408 16.8049L1.00143 15.774ZM3.0954 19.2552L3.0954 19.2552L1.38156 20.286C1.93667 21.2089 3.12284 21.5265 4.06482 21.0045L3.0954 19.2552ZM7.02424 18.4356C6.40987 18.0015 5.55729 17.8909 4.8278 18.2951L5.79722 20.0445C5.79387 20.0463 5.79538 20.0435 5.80831 20.0445C5.82318 20.0457 5.8462 20.0521 5.87007 20.069L7.02424 18.4356ZM9.87437 21.2042C9.87437 20.3327 9.3194 19.6193 8.59639 19.3118L7.8135 21.1522C7.84127 21.164 7.85945 21.1812 7.86851 21.1941C7.87267 21.2 7.87406 21.2038 7.87437 21.2048C7.87453 21.2052 7.8745 21.2053 7.87445 21.2049C7.87442 21.2048 7.8744 21.2046 7.87439 21.2044C7.87437 21.2043 7.87437 21.2042 7.87437 21.2042H9.87437ZM9.87437 22.9998H7.87437C7.87437 24.1043 8.7698 24.9998 9.87437 24.9998V22.9998ZM14.1254 22.9998H14.1254V24.9998C15.23 24.9998 16.1254 24.1043 16.1254 22.9998H14.1254ZM15.4036 19.3121C14.6805 19.6196 14.1254 20.3331 14.1254 21.2046H16.1254C16.1254 21.2046 16.1254 21.2047 16.1254 21.2049C16.1254 21.2051 16.1254 21.2052 16.1253 21.2054C16.1253 21.2057 16.1252 21.2057 16.1254 21.2052C16.1257 21.2043 16.1271 21.2005 16.1313 21.1945C16.1403 21.1816 16.1585 21.1644 16.1863 21.1526L15.4036 19.3121ZM20.905 19.2562L19.9356 21.0055C20.8776 21.5275 22.0638 21.2099 22.6189 20.2871L20.905 19.2562ZM22.999 15.775V15.775L24.7128 16.8059C25.2965 15.8355 24.9589 14.5745 23.9684 14.0256L22.999 15.775ZM20.3333 12.8227C20.2498 13.604 20.5993 14.4452 21.3702 14.8724L22.3396 13.123C22.3396 13.123 22.3396 13.123 22.3397 13.123C22.3397 13.1231 22.3398 13.1231 22.3398 13.1232C22.34 13.1233 22.3401 13.1234 22.3403 13.1235C22.3406 13.1237 22.3405 13.1237 22.3401 13.1233C22.3393 13.1224 22.3364 13.119 22.3329 13.1117C22.3252 13.0958 22.3184 13.0686 22.322 13.0352L20.3333 12.8227ZM21.3703 9.12832C20.5995 9.55545 20.25 10.3965 20.3334 11.1777L22.3221 10.9654C22.3185 10.932 22.3253 10.9049 22.333 10.889C22.3365 10.8817 22.3394 10.8782 22.3402 10.8774C22.3406 10.877 22.3407 10.877 22.3404 10.8772C22.3402 10.8773 22.3401 10.8774 22.3399 10.8775C22.3399 10.8776 22.3398 10.8776 22.3398 10.8776C22.3397 10.8777 22.3397 10.8777 22.3397 10.8777L21.3703 9.12832ZM22.9993 8.2256V8.2256L23.9687 9.97495C24.9592 9.42606 25.2968 8.16508 24.7131 7.1947L22.9993 8.2256ZM20.9053 4.74443V4.74443L22.6191 3.71353C22.064 2.79068 20.8779 2.47307 19.9359 2.99508L20.9053 4.74443ZM16.9764 5.56402C17.5908 5.99811 18.4434 6.10874 19.1728 5.70449L18.2034 3.95514C18.2068 3.95329 18.2052 3.95615 18.1923 3.95511C18.1775 3.95391 18.1544 3.94748 18.1306 3.93062L16.9764 5.56402ZM14.1254 2.79515C14.1254 3.66672 14.6805 4.38014 15.4036 4.68765L16.1863 2.84716C16.1585 2.83535 16.1403 2.81817 16.1313 2.80524C16.1271 2.79929 16.1257 2.79551 16.1254 2.79456C16.1252 2.79408 16.1253 2.79406 16.1253 2.79441C16.1254 2.79456 16.1254 2.79473 16.1254 2.7949C16.1254 2.79507 16.1254 2.79516 16.1254 2.79515H14.1254ZM4.82798 5.70453C5.55746 6.10878 6.41002 5.99815 7.02438 5.56405L5.87025 3.93065C5.84638 3.94752 5.82335 3.95395 5.80849 3.95515C5.79556 3.95619 5.79405 3.95332 5.7974 3.95518L4.82798 5.70453ZM9.87437 -1C8.7698 -1 7.87437 -0.104568 7.87437 1H9.87437L9.87437 1V-1ZM19.1721 18.2958C18.4427 17.8916 17.5902 18.0022 16.9758 18.4362L18.1298 20.0697C18.1537 20.0528 18.1767 20.0464 18.1916 20.0452C18.2045 20.0442 18.206 20.047 18.2027 20.0452L19.1721 18.2958ZM3.09513 4.74426L3.09513 4.74426L4.06455 2.99491C3.12257 2.4729 1.9364 2.79051 1.38129 3.71336L3.09513 4.74426ZM14.1254 1V1H16.1254C16.1254 -0.104568 15.23 -1 14.1254 -1V1Z" fill="#1E212E" mask="url(#path-2-inside-1_658_6442)"/>
</svg>
