<svg width="24" height="24" viewBox="0 0 24 24" xmlns="http://www.w3.org/2000/svg">
    <path fill-rule="evenodd" clip-rule="evenodd" d="M12.2721 16.0001C14.6013 16.0001 16.4345 14.1794 16.4345 12.0002C16.4345 9.82098 14.6013 8.00024 12.2721 8.00024C9.94282 8.00024 8.10962 9.82098 8.10962 12.0002C8.10962 14.1794 9.94282 16.0001 12.2721 16.0001ZM12.2721 17.0001C15.1232 17.0001 17.4345 14.7616 17.4345 12.0002C17.4345 9.23879 15.1232 7.00024 12.2721 7.00024C9.42092 7.00024 7.10962 9.23879 7.10962 12.0002C7.10962 14.7616 9.42092 17.0001 12.2721 17.0001Z"/>
    <path fill-rule="evenodd" clip-rule="evenodd" d="M14.1254 1L9.87437 1L9.87437 2.79561C9.87437 3.66709 9.31939 4.38046 8.59639 4.68802C8.0372 4.92589 7.51056 5.22052 7.02438 5.56405C6.41002 5.99815 5.55746 6.10878 4.82798 5.70453L3.09513 4.74426L1.00116 8.22542L2.63059 9.12838C3.40136 9.55551 3.7509 10.3966 3.6675 11.1778C3.63868 11.4478 3.62388 11.722 3.62388 11.9999C3.62388 12.2777 3.63868 12.5519 3.66748 12.8218C3.75086 13.603 3.40132 14.4441 2.63056 14.8712L1.00143 15.774L3.0954 19.2552L4.8278 18.2951C5.55729 17.8909 6.40987 18.0015 7.02424 18.4356C7.51046 18.7792 8.03715 19.0739 8.59639 19.3118C9.3194 19.6193 9.87437 20.3327 9.87437 21.2042V22.9998H14.1254V21.2046C14.1254 20.3331 14.6805 19.6196 15.4036 19.3121C15.9629 19.0743 16.4896 18.7797 16.9758 18.4362C17.5902 18.0022 18.4427 17.8916 19.1721 18.2958L20.905 19.2562L22.999 15.775L21.3702 14.8724C20.5993 14.4452 20.2498 13.604 20.3333 12.8227C20.3622 12.5525 20.377 12.278 20.377 11.9999C20.377 11.722 20.3622 11.4477 20.3334 11.1777C20.25 10.3965 20.5995 9.55545 21.3703 9.12832L22.9993 8.2256L20.9053 4.74443L19.1728 5.70449C18.4434 6.10874 17.5908 5.99811 16.9764 5.56402C16.49 5.22033 15.9631 4.92558 15.4036 4.68765C14.6805 4.38014 14.1254 3.66672 14.1254 2.79515V1ZM9.87437 0C9.32209 0 8.87437 0.447715 8.87437 1V2.79561C8.87437 3.22407 8.59921 3.6001 8.20495 3.76782C7.5802 4.03358 6.99135 4.36295 6.44731 4.74735C6.11235 4.98403 5.67143 5.02866 5.31269 4.82985L3.57984 3.86958C3.10885 3.60858 2.51576 3.76738 2.23821 4.22881L0.144241 7.70998C-0.147606 8.19516 0.0212111 8.82566 0.516453 9.1001L2.14588 10.0031C2.52425 10.2127 2.71907 10.6415 2.67315 11.0716C2.64058 11.3768 2.62388 11.6865 2.62388 11.9999C2.62388 12.3132 2.64057 12.6229 2.67313 12.928C2.71904 13.3581 2.52422 13.7868 2.14585 13.9965L0.516723 14.8993C0.0214815 15.1738 -0.147335 15.8042 0.144512 16.2894L2.23848 19.7706C2.51603 20.232 3.10912 20.3908 3.58011 20.1298L5.31251 19.1698C5.67126 18.971 6.11219 19.0156 6.44715 19.2523C6.99123 19.6368 7.58014 19.9662 8.20495 20.232C8.59921 20.3997 8.87437 20.7757 8.87437 21.2042V22.9998C8.87437 23.552 9.32209 23.9998 9.87437 23.9998H14.1254C14.6777 23.9998 15.1254 23.552 15.1254 22.9998V21.2046C15.1254 20.7761 15.4006 20.4001 15.7949 20.2324C16.4198 19.9667 17.0087 19.6373 17.5528 19.2529C17.8878 19.0163 18.3287 18.9717 18.6874 19.1705L20.4203 20.1308C20.8913 20.3918 21.4844 20.233 21.7619 19.7716L23.8559 16.2904C24.1478 15.8052 23.9789 15.1748 23.4837 14.9003L21.8549 13.9977C21.4765 13.788 21.2817 13.3592 21.3276 12.929C21.3603 12.6236 21.377 12.3136 21.377 11.9999C21.377 11.6865 21.3603 11.3768 21.3277 11.0716C21.2818 10.6414 21.4766 10.2127 21.855 10.003L23.484 9.10027C23.9792 8.82583 24.148 8.19534 23.8562 7.71015L21.7622 4.22898C21.4847 3.76755 20.8916 3.60875 20.4206 3.86975L18.6881 4.82982C18.3294 5.02862 17.8885 4.98399 17.5535 4.74732C17.0092 4.36273 16.42 4.03323 15.7949 3.76741C15.4006 3.59972 15.1254 3.22365 15.1254 2.79515V1C15.1254 0.447716 14.6777 0 14.1254 0H9.87437Z"/>
</svg>
