<svg width="24" height="24" viewBox="0 0 24 24" xmlns="http://www.w3.org/2000/svg">
    <path fill-rule="evenodd" clip-rule="evenodd" d="M19 1H5C2.79086 1 1 2.79086 1 5V19C1 21.2091 2.79086 23 5 23H19C21.2091 23 23 21.2091 23 19V5C23 2.79086 21.2091 1 19 1ZM5 0C2.23858 0 0 2.23858 0 5V19C0 21.7614 2.23858 24 5 24H19C21.7614 24 24 21.7614 24 19V5C24 2.23858 21.7614 0 19 0H5Z"/>
    <path fill-rule="evenodd" clip-rule="evenodd" d="M18.375 19.25C18.8582 19.25 19.25 18.8582 19.25 18.375C19.25 17.8918 18.8582 17.5 18.375 17.5C17.8918 17.5 17.5 17.8918 17.5 18.375C17.5 18.8582 17.8918 19.25 18.375 19.25ZM18.375 20.25C19.4105 20.25 20.25 19.4105 20.25 18.375C20.25 17.3395 19.4105 16.5 18.375 16.5C17.3395 16.5 16.5 17.3395 16.5 18.375C16.5 19.4105 17.3395 20.25 18.375 20.25Z"/>
</svg>
