<svg width="24" height="24" viewBox="0 0 24 24" xmlns="http://www.w3.org/2000/svg">
    <path d="M1.9999 15.8445C2.33127 15.8445 2.5999 16.1131 2.5999 16.4445V21.4H7.55546C7.88683 21.4 8.15546 21.6687 8.15546 22C8.15546 22.3314 7.88683 22.6 7.55546 22.6H2.2499C1.78046 22.6 1.3999 22.2195 1.3999 21.75V16.4445C1.3999 16.1131 1.66853 15.8445 1.9999 15.8445Z"/>
    <path d="M9.08923 14.9088C9.32355 15.1431 9.32355 15.523 9.08923 15.7573L2.97812 21.8684C2.74381 22.1027 2.36391 22.1027 2.12959 21.8684C1.89528 21.6341 1.89528 21.2542 2.12959 21.0199L8.2407 14.9088C8.47502 14.6745 8.85492 14.6745 9.08923 14.9088Z"/>
    <path d="M1.9999 8.15552C2.33127 8.15552 2.5999 7.88689 2.5999 7.55552V2.59996H7.55546C7.88683 2.59996 8.15546 2.33133 8.15546 1.99996C8.15546 1.66859 7.88683 1.39996 7.55546 1.39996H2.2499C1.78046 1.39996 1.3999 1.78052 1.3999 2.24996V7.55552C1.3999 7.88689 1.66853 8.15552 1.9999 8.15552Z"/>
    <path d="M9.08923 9.09123C9.32355 8.85692 9.32355 8.47702 9.08923 8.2427L2.97812 2.13159C2.74381 1.89728 2.36391 1.89728 2.12959 2.13159C1.89528 2.36591 1.89528 2.74581 2.12959 2.98012L8.2407 9.09123C8.47502 9.32555 8.85492 9.32555 9.08923 9.09123Z"/>
    <path d="M22.0001 15.8445C21.6687 15.8445 21.4001 16.1131 21.4001 16.4445V21.4H16.4445C16.1132 21.4 15.8445 21.6687 15.8445 22C15.8445 22.3314 16.1132 22.6 16.4445 22.6H21.7501C22.2195 22.6 22.6001 22.2195 22.6001 21.75V16.4445C22.6001 16.1131 22.3315 15.8445 22.0001 15.8445Z"/>
    <path d="M14.9108 14.9088C14.6765 15.1431 14.6765 15.523 14.9108 15.7573L21.0219 21.8684C21.2562 22.1027 21.6361 22.1027 21.8704 21.8684C22.1047 21.6341 22.1047 21.2542 21.8704 21.0199L15.7593 14.9088C15.525 14.6745 15.1451 14.6745 14.9108 14.9088Z"/>
    <path d="M22.0001 8.15552C21.6687 8.15552 21.4001 7.88689 21.4001 7.55552V2.59996H16.4445C16.1132 2.59996 15.8445 2.33133 15.8445 1.99996C15.8445 1.66859 16.1132 1.39996 16.4445 1.39996H21.7501C22.2195 1.39996 22.6001 1.78052 22.6001 2.24996V7.55552C22.6001 7.88689 22.3315 8.15552 22.0001 8.15552Z"/>
    <path d="M14.9108 9.09123C14.6765 8.85692 14.6765 8.47702 14.9108 8.2427L21.0219 2.13159C21.2562 1.89728 21.6361 1.89728 21.8704 2.13159C22.1047 2.36591 22.1047 2.74581 21.8704 2.98012L15.7593 9.09123C15.525 9.32555 15.1451 9.32555 14.9108 9.09123Z"/>
</svg>
