<svg width="24" height="24" viewBox="0 0 24 24" xmlns="http://www.w3.org/2000/svg">
    <path d="M18.9585 4.5C18.9858 4.6626 19 4.82964 19 5C19 5.17036 18.9858 5.3374 18.9585 5.5H21.5C21.7761 5.5 22 5.27614 22 5C22 4.72386 21.7761 4.5 21.5 4.5H18.9585ZM13.0415 4.5C13.0142 4.6626 13 4.82964 13 5C13 5.17036 13.0142 5.3374 13.0415 5.5H2.5C2.22386 5.5 2 5.27614 2 5C2 4.72386 2.22386 4.5 2.5 4.5H13.0415Z"/>
    <path fill-rule="evenodd" clip-rule="evenodd" d="M16 4C16.5523 4 17 4.44772 17 5C17 5.55228 16.5523 6 16 6C15.4477 6 15 5.55228 15 5C15 4.44772 15.4477 4 16 4ZM16 3C17.1046 3 18 3.89543 18 5C18 6.10457 17.1046 7 16 7C14.8954 7 14 6.10457 14 5C14 3.89543 14.8954 3 16 3Z"/>
    <path d="M9.95852 11.5C9.9858 11.6626 10 11.8296 10 12C10 12.1704 9.9858 12.3374 9.95852 12.5H21.5C21.7761 12.5 22 12.2761 22 12C22 11.7239 21.7761 11.5 21.5 11.5H9.95852ZM4.04148 11.5C4.0142 11.6626 4 11.8296 4 12C4 12.1704 4.0142 12.3374 4.04148 12.5H2.5C2.22386 12.5 2 12.2761 2 12C2 11.7239 2.22386 11.5 2.5 11.5H4.04148Z"/>
    <path fill-rule="evenodd" clip-rule="evenodd" d="M7 11C7.55228 11 8 11.4477 8 12C8 12.5523 7.55228 13 7 13C6.44772 13 6 12.5523 6 12C6 11.4477 6.44772 11 7 11ZM7 10C8.10457 10 9 10.8954 9 12C9 13.1046 8.10457 14 7 14C5.89543 14 5 13.1046 5 12C5 10.8954 5.89543 10 7 10Z"/>
    <path d="M16.9585 18.5C16.9858 18.6626 17 18.8296 17 19C17 19.1704 16.9858 19.3374 16.9585 19.5H21.5C21.7761 19.5 22 19.2761 22 19C22 18.7239 21.7761 18.5 21.5 18.5H16.9585ZM11.0415 18.5C11.0142 18.6626 11 18.8296 11 19C11 19.1704 11.0142 19.3374 11.0415 19.5H2.5C2.22386 19.5 2 19.2761 2 19C2 18.7239 2.22386 18.5 2.5 18.5H11.0415Z"/>
    <path fill-rule="evenodd" clip-rule="evenodd" d="M14 18C14.5523 18 15 18.4477 15 19C15 19.5523 14.5523 20 14 20C13.4477 20 13 19.5523 13 19C13 18.4477 13.4477 18 14 18ZM14 17C15.1046 17 16 17.8954 16 19C16 20.1046 15.1046 21 14 21C12.8954 21 12 20.1046 12 19C12 17.8954 12.8954 17 14 17Z"/>
</svg>
