<svg width="24" height="24" viewBox="0 0 24 24" xmlns="http://www.w3.org/2000/svg">
    <path d="M16.5913 15.738L16.5821 15.7889C16.2111 17.8377 14.7344 19.0469 13.1518 19.6356C11.5888 20.217 9.82682 20.233 8.71042 19.8154C7.84013 19.4899 6.46497 19.478 5.23621 19.5699C4.63595 19.6148 4.09463 19.6823 3.70327 19.7386C3.50783 19.7667 3.35039 19.792 3.2424 19.8101C3.18842 19.8191 3.14684 19.8264 3.11909 19.8313L3.08803 19.8369L3.08063 19.8383L3.07902 19.8386C3.07899 19.8386 3.07905 19.8385 3.07902 19.8386C2.80761 19.8893 2.54619 19.7104 2.49543 19.439C2.44466 19.1676 2.62355 18.9064 2.89499 18.8556L2.98691 19.3471C2.89499 18.8556 2.89489 18.8557 2.89499 18.8556L2.8989 18.8549L2.90846 18.8532L2.94401 18.8468C2.97482 18.8413 3.01965 18.8335 3.07704 18.8238C3.19178 18.8046 3.35693 18.7781 3.56088 18.7488C3.9683 18.6902 4.53299 18.6197 5.16161 18.5727C6.39064 18.4808 7.96483 18.4689 9.06076 18.8788C9.9106 19.1967 11.4207 19.2126 12.8032 18.6984C14.1662 18.1914 15.3087 17.2092 15.5981 15.6107L15.6181 15.5005C15.9392 13.7265 16.2693 11.9029 16.7657 10.5163C17.0192 9.80821 17.3303 9.17107 17.7372 8.70382C18.1546 8.22441 18.692 7.90527 19.3621 7.90527C20.6468 7.90527 21.351 8.85101 21.5226 9.7276C21.6078 10.1628 21.5764 10.6341 21.3847 11.0208C21.1822 11.4294 20.7932 11.742 20.2477 11.742C19.9716 11.742 19.7477 11.5182 19.7477 11.242C19.7477 10.9659 19.9716 10.742 20.2477 10.742C20.3551 10.742 20.4276 10.7001 20.4887 10.5768C20.5607 10.4316 20.5949 10.1937 20.5413 9.91972C20.4352 9.37792 20.0437 8.90527 19.3621 8.90527C19.0492 8.90527 18.7686 9.04205 18.4913 9.36047C18.2035 9.69107 17.9433 10.1937 17.7072 10.8534C17.2389 12.1613 16.921 13.9173 16.5913 15.738Z"/>
    <path d="M20.2477 4.73828C20.5239 4.73828 20.7477 4.96214 20.7477 5.23828C20.7477 6.06041 20.5033 6.91684 20.2748 7.54447C20.1587 7.86321 20.0427 8.13353 19.9554 8.32479C19.9117 8.42057 19.8751 8.49695 19.8489 8.55012C19.8358 8.57672 19.8254 8.59754 19.818 8.61212L19.8092 8.62925L19.8067 8.6342L19.8059 8.63575C19.8058 8.63584 19.8054 8.63668 19.3622 8.40526L19.8054 8.63668C19.6776 8.88146 19.3755 8.97629 19.1307 8.84848C18.8861 8.72073 18.7912 8.41888 18.9188 8.17415L18.9202 8.17145L18.9262 8.15959C18.9318 8.14861 18.9404 8.13155 18.9515 8.1089C18.9738 8.06357 19.0063 7.99595 19.0456 7.90975C19.1244 7.73703 19.2298 7.4914 19.3351 7.20226C19.5493 6.61413 19.7477 5.88707 19.7477 5.23828C19.7477 4.96214 19.9716 4.73828 20.2477 4.73828Z"/>
    <path d="M12.1437 7.19316C10.6918 6.53916 8.73851 6.71337 7.25272 8.04241C5.7563 9.38095 5.19243 11.3856 5.46236 13.1436C5.73208 14.9002 6.80903 16.3156 8.51223 16.6342C8.78366 16.6849 8.96255 16.9461 8.91179 17.2176C8.86102 17.489 8.59983 17.6679 8.32839 17.6171C6.09913 17.2002 4.78959 15.3511 4.47394 13.2953C4.1585 11.2409 4.8104 8.88536 6.58602 7.29707C8.37227 5.69928 10.7492 5.46824 12.5544 6.2814C14.387 7.10691 15.6121 9.0054 15.0471 11.5312L15.047 11.5318C14.6079 13.483 13.4065 14.7125 12.0573 15.1168C10.7089 15.5209 9.24721 15.0769 8.45737 13.7665C7.71595 12.5364 7.70294 11.2765 8.08921 10.3097C8.46113 9.37887 9.25902 8.62565 10.1914 8.62565C10.8478 8.62565 11.3582 8.78926 11.7104 9.11991C12.0631 9.45092 12.1812 9.87783 12.2027 10.2445C12.2241 10.608 12.1545 10.9543 12.0875 11.1966C12.0532 11.3206 12.0176 11.4242 11.9901 11.498C11.9763 11.535 11.9644 11.5648 11.9556 11.5863L11.9447 11.6123L11.9412 11.6204L11.94 11.6232L11.9395 11.6243L11.9393 11.6248C11.9392 11.625 11.9391 11.6252 11.4822 11.4221L11.9391 11.6252C11.827 11.8775 11.5315 11.9911 11.2792 11.879C11.0273 11.767 10.9136 11.4724 11.0247 11.2203C11.0248 11.2203 11.0248 11.2202 11.0248 11.2201L11.0248 11.2201L11.0249 11.2199C11.025 11.2197 11.0251 11.2195 11.0252 11.2194C11.0252 11.2194 11.0252 11.2194 11.0252 11.2194L11.025 11.2197L11.0254 11.2187L11.0306 11.2063C11.0356 11.1941 11.0434 11.1746 11.053 11.1489C11.0723 11.097 11.0984 11.0212 11.1237 10.9299C11.1758 10.7416 11.2169 10.5139 11.2045 10.3032C11.1923 10.0958 11.1321 9.9486 11.0261 9.84903C10.9196 9.7491 10.6907 9.62565 10.1914 9.62565C9.818 9.62565 9.30256 9.96812 9.01783 10.6808C8.74744 11.3575 8.73442 12.289 9.31383 13.2503C9.84482 14.1312 10.8146 14.4453 11.7702 14.1589C12.7248 13.8728 13.6997 12.9636 14.0712 11.3128C14.5268 9.27584 13.5681 7.83481 12.1437 7.19316Z"/>
</svg>
