<svg width="24" height="24" viewBox="0 0 24 24" xmlns="http://www.w3.org/2000/svg">
    <path d="M11.1156 1.6763C11.4908 0.965158 12.5093 0.965157 12.8845 1.6763L15.4384 6.51681C15.5831 6.79106 15.8468 6.98267 16.1524 7.03553L21.5451 7.96862C22.3374 8.1057 22.6522 9.07434 22.0918 9.65094L18.2774 13.5756C18.0613 13.798 17.9605 14.108 18.0047 14.4149L18.7837 19.8321C18.8982 20.628 18.0742 21.2266 17.3526 20.8718L12.4413 18.4569C12.1631 18.3201 11.8371 18.3201 11.5588 18.4569L6.64751 20.8718C5.92596 21.2266 5.10199 20.628 5.21644 19.8321L5.99549 14.4149C6.03962 14.108 5.93889 13.798 5.72278 13.5756L1.90838 9.65094C1.34798 9.07434 1.66271 8.1057 2.45499 7.96862L7.84778 7.03553C8.15332 6.98267 8.41705 6.79106 8.56174 6.51681L11.1156 1.6763Z"/>
</svg>
