<svg width="24" height="24" viewBox="0 0 24 24" xmlns="http://www.w3.org/2000/svg">
    <path fill-rule="evenodd" clip-rule="evenodd" d="M14.554 6.98345L12.0001 2.14294L9.44619 6.98345C9.1568 7.53194 8.62935 7.91516 8.01828 8.02089L2.62549 8.95398L6.43989 12.8787C6.87211 13.3234 7.07358 13.9434 6.9853 14.5573L6.20626 19.9745L11.1176 17.5595C11.6741 17.2859 12.3261 17.2859 12.8826 17.5595L17.7939 19.9745L17.0148 14.5573C16.9266 13.9434 17.128 13.3234 17.5603 12.8787L21.3747 8.95398L15.9819 8.02089C15.3708 7.91516 14.8433 7.53194 14.554 6.98345ZM12.8845 1.6763C12.5093 0.965157 11.4908 0.965158 11.1156 1.6763L8.56174 6.51681C8.41705 6.79106 8.15332 6.98267 7.84778 7.03553L2.45499 7.96862C1.66271 8.1057 1.34798 9.07434 1.90838 9.65094L5.72278 13.5756C5.93889 13.798 6.03962 14.108 5.99549 14.4149L5.21644 19.8321C5.10199 20.628 5.92596 21.2266 6.64751 20.8718L11.5588 18.4569C11.8371 18.3201 12.1631 18.3201 12.4413 18.4569L17.3526 20.8718C18.0742 21.2266 18.8982 20.628 18.7837 19.8321L18.0047 14.4149C17.9605 14.108 18.0613 13.798 18.2774 13.5756L22.0918 9.65094C22.6522 9.07434 22.3374 8.1057 21.5451 7.96862L16.1524 7.03553C15.8468 6.98267 15.5831 6.79106 15.4384 6.51681L12.8845 1.6763Z"/>
</svg>
