<svg width="24" height="24" viewBox="0 0 24 24" xmlns="http://www.w3.org/2000/svg">
    <path fill-rule="evenodd" clip-rule="evenodd" d="M19 1H5C2.79086 1 1 2.79086 1 5V19C1 21.2091 2.79086 23 5 23H19C21.2091 23 23 21.2091 23 19V5C23 2.79086 21.2091 1 19 1ZM5 0C2.23858 0 0 2.23858 0 5V19C0 21.7614 2.23858 24 5 24H19C21.7614 24 24 21.7614 24 19V5C24 2.23858 21.7614 0 19 0H5Z"/>
    <path d="M6.3999 11.9999C6.3999 11.6685 6.66853 11.3999 6.9999 11.3999H16.9999C17.3313 11.3999 17.5999 11.6685 17.5999 11.9999C17.5999 12.3313 17.3313 12.5999 16.9999 12.5999H6.9999C6.66853 12.5999 6.3999 12.3313 6.3999 11.9999Z"/>
</svg>
