<svg width="24" height="24" viewBox="0 0 24 24" xmlns="http://www.w3.org/2000/svg">
    <path fill-rule="evenodd" clip-rule="evenodd" d="M5.1001 2.69995V21.3H18.9001V2.69995H5.1001ZM4.8001 1.19995C4.13736 1.19995 3.6001 1.73721 3.6001 2.39995V21.6C3.6001 22.2627 4.13736 22.8 4.8001 22.8H19.2001C19.8628 22.8 20.4001 22.2627 20.4001 21.5999V2.39995C20.4001 1.73721 19.8628 1.19995 19.2001 1.19995H4.8001Z"/>
    <path d="M8.5 20C8.5 19.7239 8.72386 19.5 9 19.5H15C15.2761 19.5 15.5 19.7239 15.5 20C15.5 20.2761 15.2761 20.5 15 20.5H9C8.72386 20.5 8.5 20.2761 8.5 20Z"/>
</svg>
