<svg width="24" height="24" viewBox="0 0 24 24" xmlns="http://www.w3.org/2000/svg">
    <path d="M11 7C11 6.44772 11.4477 6 12 6C12.5523 6 13 6.44772 13 7V14V14.1707C14.1652 14.5825 15 15.6938 15 17C15 18.6569 13.6569 20 12 20C10.3431 20 9 18.6569 9 17C9 15.6938 9.83481 14.5825 11 14.1707V14V7Z"/>
    <path d="M9.2 11.8807L8.68652 12.2389C7.18098 13.2891 6.2 15.0301 6.2 17C6.2 20.2033 8.79675 22.8 12 22.8C15.2033 22.8 17.8 20.2033 17.8 17C17.8 15.0301 16.819 13.2891 15.3135 12.2389L14.8 11.8807V11.2547V4C14.8 2.4536 13.5464 1.2 12 1.2C10.4536 1.2 9.2 2.4536 9.2 4V11.2547V11.8807ZM8 4C8 1.79086 9.79086 0 12 0C14.2091 0 16 1.79086 16 4V5.4H18.5C18.8314 5.4 19.1 5.66863 19.1 6C19.1 6.33137 18.8314 6.6 18.5 6.6H16V8.4H18.5C18.8314 8.4 19.1 8.66863 19.1 9C19.1 9.33137 18.8314 9.6 18.5 9.6H16V11.2547C17.8135 12.5196 19 14.6213 19 17C19 20.866 15.866 24 12 24C8.13401 24 5 20.866 5 17C5 14.6213 6.18652 12.5196 8 11.2547V4Z"/>
</svg>
