<svg width="24" height="24" viewBox="0 0 24 24" xmlns="http://www.w3.org/2000/svg">
    <path d="M12.5668 16.1701H11.4568V9.56011H9.22681V8.61011H14.7768V9.56011H12.5668V16.1701Z"/>
    <path fill-rule="evenodd" clip-rule="evenodd" d="M20.4 5.9998H3.6C2.27452 5.9998 1.2 7.07432 1.2 8.39981V15.1998C1.2 16.5253 2.27452 17.5998 3.6 17.5998H20.4C21.7255 17.5998 22.8 16.5253 22.8 15.1998V8.3998C22.8 7.07432 21.7255 5.9998 20.4 5.9998ZM3.6 4.7998C1.61178 4.7998 0 6.41158 0 8.39981V15.1998C0 17.188 1.61178 18.7998 3.6 18.7998H20.4C22.3882 18.7998 24 17.188 24 15.1998V8.3998C24 6.41158 22.3882 4.7998 20.4 4.7998H3.6Z"/>
</svg>
