<svg width="24" height="24" viewBox="0 0 24 24" xmlns="http://www.w3.org/2000/svg">
    <path fill-rule="evenodd" clip-rule="evenodd" d="M12 20.8C16.8601 20.8 20.8 16.8601 20.8 12C20.8 7.13989 16.8601 3.2 12 3.2C7.13989 3.2 3.2 7.13989 3.2 12C3.2 16.8601 7.13989 20.8 12 20.8ZM12 22C17.5228 22 22 17.5228 22 12C22 6.47715 17.5228 2 12 2C6.47715 2 2 6.47715 2 12C2 17.5228 6.47715 22 12 22Z"/>
    <path d="M12.4304 2.58183C12.6613 2.81945 12.6559 3.19931 12.4183 3.43027C10.9798 4.82852 9.24662 7.37796 8.74359 10.4381C8.24666 13.461 8.93896 17.0354 12.4277 20.5791C12.6602 20.8152 12.6572 21.1951 12.421 21.4276C12.1849 21.6601 11.805 21.6571 11.5725 21.421C7.81688 17.6061 6.99993 13.6474 7.55948 10.2434C8.11291 6.87671 10.002 4.10545 11.5819 2.56978C11.8195 2.33881 12.1994 2.34421 12.4304 2.58183Z"/>
    <path d="M11.5696 2.58183C11.3387 2.81945 11.3441 3.19931 11.5817 3.43027C13.0202 4.82852 14.7534 7.37796 15.2564 10.4381C15.7533 13.461 15.061 17.0354 11.5723 20.5791C11.3398 20.8152 11.3428 21.1951 11.579 21.4276C11.8151 21.6601 12.195 21.6571 12.4275 21.421C16.1831 17.6061 17.0001 13.6474 16.4405 10.2434C15.8871 6.87671 13.998 4.10545 12.4181 2.56978C12.1805 2.33881 11.8006 2.34421 11.5696 2.58183Z"/>
    <path d="M3.3999 8.00002C3.3999 7.66865 3.66853 7.40002 3.9999 7.40002H19.9999C20.3313 7.40002 20.5999 7.66865 20.5999 8.00002C20.5999 8.3314 20.3313 8.60002 19.9999 8.60002H3.9999C3.66853 8.60002 3.3999 8.3314 3.3999 8.00002Z"/>
    <path d="M3.3999 16C3.3999 15.6687 3.66853 15.4 3.9999 15.4H19.9999C20.3313 15.4 20.5999 15.6687 20.5999 16C20.5999 16.3314 20.3313 16.6 19.9999 16.6H3.9999C3.66853 16.6 3.3999 16.3314 3.3999 16Z"/>
</svg>
