<svg width="24" height="24" viewBox="0 0 24 24" xmlns="http://www.w3.org/2000/svg">
    <path fill-rule="evenodd" clip-rule="evenodd" d="M10.5602 2.97636L2 4.09774V10.5204L10.5602 10.5204L10.5602 2.97636ZM1.87011 3.10621C1.37229 3.17142 1 3.59566 1 4.09774V10.5204C1 11.0727 1.44772 11.5204 2 11.5204H10.5602C11.1125 11.5204 11.5602 11.0727 11.5602 10.5204V2.97636C11.5602 2.37249 11.0291 1.90639 10.4303 1.98483L1.87011 3.10621Z"/>
    <path fill-rule="evenodd" clip-rule="evenodd" d="M21.9997 1.16097L13.4778 2.43744L13.4778 10.4826L21.9997 10.4826L21.9997 1.16097ZM13.3297 1.44847C12.84 1.52181 12.4778 1.94236 12.4778 2.43744V10.4826C12.4778 11.0349 12.9255 11.4826 13.4778 11.4826H21.9997C22.552 11.4826 22.9997 11.0349 22.9997 10.4826V1.16097C22.9997 0.549688 22.4562 0.0814524 21.8516 0.172004L13.3297 1.44847Z"/>
    <path fill-rule="evenodd" clip-rule="evenodd" d="M10.5602 21.0233L2 19.9019V13.4792L10.5602 13.4792L10.5602 21.0233ZM1.87011 20.8934C1.37229 20.8282 1 20.404 1 19.9019V13.4792C1 12.9269 1.44772 12.4792 2 12.4792H10.5602C11.1125 12.4792 11.5602 12.9269 11.5602 13.4792V21.0233C11.5602 21.6271 11.0291 22.0932 10.4303 22.0148L1.87011 20.8934Z"/>
    <path fill-rule="evenodd" clip-rule="evenodd" d="M22 22.839L13.478 21.5626L13.478 13.5174L22 13.5174L22 22.839ZM13.3299 22.5515C12.8403 22.4782 12.478 22.0576 12.478 21.5626V13.5174C12.478 12.9651 12.9257 12.5174 13.478 12.5174H22C22.5523 12.5174 23 12.9651 23 13.5174V22.839C23 23.4503 22.4564 23.9185 21.8519 23.828L13.3299 22.5515Z"/>
</svg>
