<svg width="24" height="24" viewBox="0 0 24 24" fill="none" xmlns="http://www.w3.org/2000/svg">
    <path d="M1.5 4.09771C1.5 3.84668 1.68614 3.63456 1.93506 3.60195L10.4953 2.48057C10.7947 2.44135 11.0602 2.6744 11.0602 2.97633V10.5204C11.0602 10.7966 10.8364 11.0204 10.5602 11.0204H2C1.72386 11.0204 1.5 10.7966 1.5 10.5204V4.09771Z" stroke="black"/>
    <path d="M12.9778 2.43741C12.9778 2.18987 13.1589 1.97959 13.4037 1.94293L21.9257 0.666458C22.2279 0.621182 22.4997 0.855299 22.4997 1.16094V10.4826C22.4997 10.7587 22.2759 10.9826 21.9997 10.9826H13.4778C13.2016 10.9826 12.9778 10.7587 12.9778 10.4826V2.43741Z" stroke="black"/>
    <path d="M1.5 19.9019C1.5 20.153 1.68614 20.3651 1.93506 20.3977L10.4953 21.5191C10.7947 21.5583 11.0602 21.3252 11.0602 21.0233V13.4792C11.0602 13.2031 10.8364 12.9792 10.5602 12.9792H2C1.72386 12.9792 1.5 13.2031 1.5 13.4792V19.9019Z" stroke="black"/>
    <path d="M12.978 21.5626C12.978 21.8101 13.1592 22.0204 13.404 22.0571L21.9259 23.3335C22.2282 23.3788 22.5 23.1447 22.5 22.8391V13.5174C22.5 13.2413 22.2761 13.0174 22 13.0174H13.478C13.2019 13.0174 12.978 13.2413 12.978 13.5174V21.5626Z" stroke="black"/>
</svg>
