<svg width="24" height="24" viewBox="0 0 24 24" xmlns="http://www.w3.org/2000/svg">
    <path d="M16.0512 8.12L16.0513 8.11841L16.0512 8.12ZM16.0722 7.92915L16.8059 1.28173C16.8513 0.870016 16.5544 0.499421 16.1427 0.453981C15.731 0.40854 15.3604 0.705464 15.315 1.11718L14.5611 7.94789C14.461 8.81521 15.1862 9.54039 16.0535 9.44033L22.8842 8.68643C23.2959 8.64099 23.5928 8.2704 23.5474 7.85868C23.502 7.44697 23.1314 7.15005 22.7197 7.19549L16.0722 7.92915Z"/>
    <path d="M15.5217 8.47979C15.2288 8.1869 15.2288 7.71203 15.5217 7.41913L22.2717 0.669133C22.5646 0.37624 23.0394 0.37624 23.3323 0.669133C23.6252 0.962027 23.6252 1.4369 23.3323 1.72979L16.5823 8.47979C16.2894 8.77269 15.8146 8.77269 15.5217 8.47979Z"/>
    <path d="M7.95299 15.879L7.95281 15.8806L7.95299 15.879ZM7.93191 16.0699L7.19824 22.7173C7.1528 23.129 7.44973 23.4996 7.86144 23.545C8.27315 23.5905 8.64375 23.2936 8.68919 22.8818L9.44308 16.0511C9.54316 15.1838 8.818 14.4586 7.95067 14.5587L1.11994 15.3126C0.708224 15.358 0.4113 15.7286 0.45674 16.1403C0.50218 16.5521 0.872776 16.849 1.28449 16.8035L7.93191 16.0699Z"/>
    <path d="M8.48248 15.5192C8.77537 15.8121 8.77537 16.287 8.48248 16.5799L1.73248 23.3299C1.43958 23.6228 0.96471 23.6228 0.671817 23.3299C0.378924 23.037 0.378924 22.5621 0.671817 22.2692L7.42182 15.5192C7.71471 15.2263 8.18958 15.2263 8.48248 15.5192Z"/>
</svg>
