<svg width="24" height="24" viewBox="0 0 24 24" xmlns="http://www.w3.org/2000/svg">
    <path d="M20.8502 2.57958L20.85 2.58117L20.8502 2.57958ZM20.8291 2.77044L20.0955 9.41785C20.05 9.82957 20.3469 10.2002 20.7587 10.2456C21.1704 10.291 21.541 9.99412 21.5864 9.58241L22.3403 2.7517C22.4404 1.88437 21.7152 1.15919 20.8479 1.25926L14.0172 2.01315C13.6054 2.05859 13.3085 2.42919 13.354 2.8409C13.3994 3.25262 13.77 3.54954 14.1817 3.5041L20.8291 2.77044Z"/>
    <path d="M21.3799 2.21979C21.6728 2.51269 21.6728 2.98756 21.3799 3.28045L14.6299 10.0305C14.337 10.3233 13.8622 10.3233 13.5693 10.0305C13.2764 9.73756 13.2764 9.26269 13.5693 8.96979L20.3193 2.21979C20.6122 1.9269 21.087 1.9269 21.3799 2.21979Z"/>
    <path d="M2.74916 21.0206L2.74933 21.019L2.74916 21.0206ZM2.77024 20.8298L3.5039 14.1824C3.54934 13.7707 3.25242 13.4001 2.84071 13.3546C2.42899 13.3092 2.0584 13.6061 2.01296 14.0178L1.25906 20.8485C1.15898 21.7158 1.88415 22.441 2.75148 22.341L9.58221 21.5871C9.99392 21.5416 10.2908 21.171 10.2454 20.7593C10.2 20.3476 9.82937 20.0507 9.41766 20.0961L2.77024 20.8298Z"/>
    <path d="M2.21967 21.3804C1.92678 21.0875 1.92678 20.6127 2.21967 20.3198L8.96967 13.5698C9.26256 13.2769 9.73744 13.2769 10.0303 13.5698C10.3232 13.8627 10.3232 14.3375 10.0303 14.6304L3.28033 21.3804C2.98744 21.6733 2.51256 21.6733 2.21967 21.3804Z"/>
</svg>
